<svg width="24" height="24" viewBox="0 0 24 24" fill="none" xmlns="http://www.w3.org/2000/svg">
<g clip-path="url(#clip0_469_6735)">
<path d="M12.7847 9.26702V5.83554L15.0054 7.13276C15.1847 7.22762 15.3934 7.24874 15.5877 7.19172C15.7821 7.13471 15.9472 7.00396 16.0485 6.82679C16.1497 6.64962 16.1794 6.43974 16.1312 6.24098C16.0831 6.04221 15.9609 5.86995 15.7901 5.76017L13.5694 4.46295L15.7901 3.16573C15.968 3.05856 16.0975 2.88539 16.151 2.6831C16.2045 2.4808 16.1777 2.26538 16.0765 2.08273C15.9723 1.90086 15.801 1.76821 15.6002 1.71392C15.3994 1.65962 15.1854 1.68811 15.0054 1.79314L12.7847 3.09036V1.28932C12.7797 1.08051 12.6954 0.881676 12.5493 0.733981C12.4032 0.586286 12.2066 0.501048 12.0001 0.495917C11.7921 0.496545 11.5929 0.580338 11.4459 0.728994C11.2989 0.877651 11.216 1.07909 11.2154 1.28932V3.09036L8.99474 1.79314C8.81468 1.68811 8.60076 1.65962 8.39995 1.71392C8.19914 1.76821 8.02784 1.90086 7.92365 2.08273C7.82298 2.26552 7.79658 2.48073 7.85003 2.68285C7.90348 2.88497 8.03259 3.05814 8.21006 3.16573L10.4307 4.46295L8.21006 5.76017C8.03926 5.86995 7.91702 6.04221 7.86887 6.24098C7.82072 6.43974 7.85038 6.64962 7.95167 6.82679C8.05295 7.00396 8.21802 7.13471 8.41239 7.19172C8.60676 7.24874 8.81541 7.22762 8.99474 7.13276L11.2154 5.83554V9.26702C9.42159 9.46981 7.77268 10.3594 6.60728 11.753C5.44187 13.1466 4.84845 14.9386 4.94888 16.7608C5.04932 18.583 5.83598 20.2972 7.14731 21.5512C8.45864 22.8053 10.1951 23.5041 12.0001 23.5041C13.805 23.5041 15.5415 22.8053 16.8528 21.5512C18.1641 20.2972 18.9508 18.583 19.0512 16.7608C19.1517 14.9386 18.5582 13.1466 17.3928 11.753C16.2274 10.3594 14.5785 9.46981 12.7847 9.26702ZM12.0001 21.9179C10.9137 21.9179 9.85173 21.5922 8.94845 20.9819C8.04517 20.3716 7.34115 19.5042 6.92541 18.4894C6.50968 17.4746 6.40091 16.3579 6.61284 15.2805C6.82478 14.2032 7.34792 13.2136 8.11609 12.4369C8.88427 11.6602 9.86299 11.1312 10.9285 10.9169C11.994 10.7026 13.0984 10.8126 14.102 11.233C15.1057 11.6533 15.9636 12.3652 16.5671 13.2785C17.1707 14.1918 17.4928 15.2656 17.4928 16.364C17.4913 17.8365 16.9121 19.2483 15.8823 20.2895C14.8526 21.3307 13.4564 21.9163 12.0001 21.9179Z" />
<path fill-rule="evenodd" clip-rule="evenodd" d="M15.0054 7.13276L12.7847 5.83554V9.26702C14.5785 9.46981 16.2274 10.3594 17.3928 11.753C18.5582 13.1466 19.1517 14.9386 19.0512 16.7608C18.9508 18.583 18.1641 20.2972 16.8528 21.5512C15.5415 22.8053 13.805 23.5041 12.0001 23.5041C10.1951 23.5041 8.45864 22.8053 7.14731 21.5512C5.83598 20.2972 5.04932 18.583 4.94888 16.7608C4.84845 14.9386 5.44187 13.1466 6.60728 11.753C7.77268 10.3594 9.42159 9.46981 11.2154 9.26702V5.83554L8.99474 7.13276C8.81541 7.22762 8.60676 7.24874 8.41239 7.19172C8.21802 7.13471 8.05295 7.00396 7.95167 6.82679C7.85038 6.64962 7.82072 6.43974 7.86887 6.24098C7.91702 6.04221 8.03926 5.86995 8.21006 5.76017L10.4307 4.46295L8.21006 3.16573C8.03259 3.05814 7.90348 2.88497 7.85003 2.68285C7.79658 2.48073 7.82298 2.26552 7.92365 2.08273C8.02784 1.90086 8.19914 1.76821 8.39995 1.71392C8.60076 1.65962 8.81468 1.68811 8.99474 1.79314L11.2154 3.09036V1.28932C11.216 1.07909 11.2989 0.877651 11.4459 0.728994C11.5929 0.580338 11.7921 0.496545 12.0001 0.495917C12.2066 0.501048 12.4032 0.586286 12.5493 0.733981C12.6954 0.881676 12.7797 1.08051 12.7847 1.28932V3.09036L15.0054 1.79314C15.1854 1.68811 15.3994 1.65962 15.6002 1.71392C15.801 1.76821 15.9723 1.90086 16.0765 2.08273C16.1777 2.26538 16.2045 2.4808 16.151 2.6831C16.0975 2.88539 15.968 3.05856 15.7901 3.16573L13.5694 4.46295L15.7901 5.76017C15.9609 5.86995 16.0831 6.04221 16.1312 6.24098C16.1794 6.43974 16.1497 6.64962 16.0485 6.82679C15.9472 7.00396 15.7821 7.13471 15.5877 7.19172C15.3934 7.24874 15.1847 7.22762 15.0054 7.13276ZM14.5498 4.46295L16.0444 5.33605L16.0532 5.34169C16.3307 5.52009 16.5293 5.80002 16.6076 6.123C16.6858 6.44599 16.6376 6.78705 16.473 7.07495C16.3085 7.36285 16.0402 7.57532 15.7244 7.66797C15.4085 7.76062 15.0695 7.72629 14.7781 7.57215L14.7689 7.56733L13.2752 6.69472V8.83654C15.0235 9.13928 16.616 10.056 17.7673 11.4328C19.0137 12.9233 19.6483 14.8396 19.5409 16.7884C19.4335 18.7371 18.5922 20.5703 17.1898 21.9115C15.7874 23.2527 13.9304 24 12.0001 24C10.0698 24 8.2127 23.2527 6.81031 21.9115C5.40792 20.5703 4.56663 18.7371 4.45922 16.7884C4.35181 14.8396 4.98645 12.9233 6.23278 11.4328C7.38408 10.056 8.97663 9.13928 10.725 8.83654V6.69472L9.23117 7.56733L9.22206 7.57215C8.93065 7.72629 8.5916 7.76062 8.27575 7.66797C7.95989 7.57532 7.69166 7.36285 7.52707 7.07495C7.36249 6.78705 7.31428 6.44599 7.39253 6.123C7.47077 5.80001 7.66941 5.52009 7.94696 5.34169L7.95573 5.33605L9.45035 4.46295L7.95783 3.59107C7.67114 3.41727 7.4626 3.13746 7.37625 2.81095C7.2899 2.48444 7.33255 2.13676 7.49518 1.84148L7.49921 1.83415C7.66852 1.53861 7.94694 1.3231 8.27326 1.23487C8.59958 1.14664 8.9472 1.19294 9.23979 1.3636L10.725 2.23118V1.28784C10.726 0.946611 10.8605 0.619645 11.0991 0.378355C11.3377 0.137066 11.6611 0.00105993 11.9986 4.08178e-05L12.0121 0C12.3445 0.00825778 12.661 0.145633 12.8961 0.383342C13.1312 0.621051 13.2669 0.941073 13.275 1.27714L13.2753 1.28932L13.2752 2.23118L14.76 1.36377C15.0526 1.1931 15.4005 1.14664 15.7269 1.23487C16.0532 1.3231 16.3315 1.53864 16.5008 1.83419L16.5043 1.84021C16.6681 2.13561 16.7113 2.48403 16.6248 2.81119C16.5382 3.13836 16.3288 3.41843 16.041 3.59175L16.0354 3.59514L14.5498 4.46295ZM9.22091 20.5696C10.0434 21.1253 11.0104 21.4219 11.9995 21.422C13.3259 21.4206 14.5976 20.8872 15.5355 19.9388C16.4734 18.9905 17.001 17.7047 17.0024 16.3635C17.0023 15.3633 16.7089 14.3856 16.1593 13.554C15.6097 12.7222 14.8284 12.0739 13.9144 11.6911C13.0003 11.3083 11.9945 11.2081 11.0242 11.4033C10.0538 11.5984 9.16247 12.0802 8.46288 12.7875C7.76329 13.4949 7.28686 14.3961 7.09385 15.3773C6.90083 16.3584 6.99989 17.3754 7.37851 18.2996C7.75712 19.2239 8.39828 20.0138 9.22091 20.5696ZM17.4928 16.364C17.4928 15.2656 17.1707 14.1918 16.5671 13.2785C15.9636 12.3652 15.1057 11.6533 14.102 11.233C13.0984 10.8126 11.994 10.7026 10.9285 10.9169C9.86299 11.1312 8.88427 11.6602 8.11609 12.4369C7.34792 13.2136 6.82478 14.2032 6.61284 15.2805C6.40091 16.3579 6.50968 17.4746 6.92541 18.4894C7.34115 19.5042 8.04517 20.3716 8.94845 20.9819C9.85173 21.5922 10.9137 21.9179 12.0001 21.9179C13.4564 21.9163 14.8526 21.3307 15.8823 20.2895C16.9121 19.2483 17.4913 17.8365 17.4928 16.364Z" />
</g>
<defs>
<clipPath id="clip0_469_6735">
<rect width="24" height="24" fill="white"/>
</clipPath>
</defs>
</svg>
