<svg width="24" height="24" viewBox="0 0 24 24" fill="none" xmlns="http://www.w3.org/2000/svg">
<g clip-path="url(#clip0_469_7251)">
<path d="M12.9769 1.93865C13.2483 1.57888 13.2047 0.815778 13.166 0.142624C13.1646 0.113608 13.1629 0.0852305 13.1613 0.0564112C12.7808 0.0200802 12.3957 0 12.0059 0C10.5121 0 9.08283 0.275183 7.76367 0.774046C8.70469 1.22627 10.1613 2.00464 11.7804 3.15471C12.3328 2.67931 12.7495 2.24044 12.9769 1.93865Z" />
<path d="M19.0569 8.78597C18.4654 8.85279 17.9666 8.94985 17.54 9.08599C19.5793 12.6465 20.3744 17.1448 20.569 20.4037C22.5893 18.3452 23.8723 15.5624 23.9936 12.4799C22.6016 10.7689 20.7574 8.59307 19.0569 8.78597Z" />
<path d="M6.93339 5.7126C8.36626 5.41444 9.71242 4.69327 10.7858 3.93204C8.54659 2.38984 6.67898 1.58948 6.30747 1.43713C3.9844 2.69296 2.12543 4.69386 1.04395 7.11827C2.44966 6.55818 3.97207 6.27323 5.46739 5.99559C5.95113 5.90575 6.45117 5.81291 6.93339 5.7126Z" />
<path d="M15.2275 6.06153C15.3554 6.19007 15.483 6.32081 15.6097 6.45401C16.0771 6.94472 16.5012 7.48144 16.8902 8.04928C17.4566 7.83542 18.1234 7.68376 18.9216 7.59352C20.8023 7.38079 22.4746 8.87061 23.91 10.5108C23.6022 8.02434 22.5358 5.77393 20.9468 3.99916C20.0795 4.10369 19.1125 4.28077 18.127 4.57486C17.4805 4.76795 16.4509 5.29259 15.2275 6.06153Z" />
<path d="M13.6493 12.2587C14.1415 10.5916 14.7116 9.38989 15.8161 8.60985C15.4846 8.13396 15.1279 7.68734 14.7415 7.28161C14.5627 7.09387 14.3819 6.91256 14.2004 6.73444C9.76884 9.75084 3.69847 15.2919 3.14648 20.0927C4.98905 22.1087 7.51072 23.4913 10.3494 23.8835C11.3831 21.8256 12.3559 17.6422 12.9341 15.1542C13.212 13.9591 13.4518 12.9273 13.6493 12.2587Z" />
<path d="M8.6244 9.61509C10.1695 8.19126 11.8013 6.91447 13.2938 5.88832C12.7963 5.44818 12.2973 5.04245 11.8074 4.67035C10.5678 5.60219 8.94475 6.51999 7.17809 6.88742C6.68335 6.99038 6.17673 7.08449 5.68694 7.17542C3.7998 7.52587 1.98825 7.86527 0.464808 8.71526C0.168121 9.75958 0.00585938 10.8606 0.00585938 12C0.00585938 14.5489 0.803079 16.9106 2.15818 18.854C3.03606 15.3782 6.04721 11.9899 8.6244 9.61509Z" />
<path d="M14.3272 5.20294C15.7548 4.2928 16.9856 3.66349 17.7842 3.42513C18.5013 3.21097 19.2047 3.05499 19.8709 2.94124C18.3315 1.60362 16.4499 0.650274 14.3728 0.234726C14.4188 1.07279 14.4389 1.9929 13.9348 2.66139C13.6952 2.97884 13.29 3.41423 12.7627 3.88658C13.2791 4.28853 13.8039 4.72686 14.3272 5.20294Z" />
<path d="M14.8003 12.5984C14.6129 13.2332 14.3766 14.2493 14.1031 15.4258C13.2958 18.8996 12.5233 22.0079 11.6211 23.9902C11.7492 23.9943 11.8772 23.9999 12.0063 23.9999C14.803 23.9999 17.3739 23.0407 19.4141 21.4368C19.3336 18.0266 18.516 13.203 16.4567 9.62225C15.658 10.2159 15.2281 11.1497 14.8003 12.5984Z" />
</g>
<defs>
<clipPath id="clip0_469_7251">
<rect width="24" height="24" fill="white"/>
</clipPath>
</defs>
</svg>
