<svg width="24" height="24" viewBox="0 0 24 24" fill="none" xmlns="http://www.w3.org/2000/svg">
<g clip-path="url(#clip0_472_6828)">
<path d="M11.5607 8.75132C11.3699 8.49534 10.5873 7.97067 9.32843 7.57106C8.02493 7.15725 7.13168 7.15345 6.84082 7.2486C7.03155 7.50459 7.81423 8.02926 9.07305 8.42887C10.3766 8.84268 11.2699 8.84648 11.5607 8.75132Z" />
<path d="M17.1603 7.24866C16.8695 7.1535 15.9763 7.15734 14.6726 7.57111C13.4138 7.97072 12.6312 8.49534 12.4404 8.75137C12.7314 8.84658 13.6245 8.84273 14.9281 8.42892C16.1869 8.02931 16.9695 7.50464 17.1603 7.24866Z" />
<path d="M15.6006 11.0336C15.6006 11.1009 15.6114 11.1675 15.6327 11.2314L15.7605 11.6149C16.6822 11.3228 17.5514 10.8696 18.3225 10.2713L18.0048 9.44513L15.9462 10.4744C15.733 10.581 15.6006 10.7953 15.6006 11.0336Z" />
<path d="M12.9147 9.60178C12.8362 9.60178 12.7604 9.59892 12.6865 9.594L13.4876 11.9972C13.9933 11.9842 14.4945 11.924 14.9851 11.8195L14.8734 11.4843C14.8248 11.3386 14.8002 11.187 14.8002 11.0336C14.8002 10.4903 15.1021 10.0018 15.588 9.75881L17.7158 8.69489L17.4714 8.05936C16.7129 8.68518 15.3857 9.12286 15.1699 9.19134C14.4547 9.41845 13.6043 9.60178 12.9147 9.60178Z" />
<path d="M9.20078 11.0336C9.20078 11.187 9.17617 11.3386 9.1277 11.4842L9.01591 11.8195C9.5065 11.9239 10.0077 11.9841 10.5134 11.9972L11.3145 9.594C11.2407 9.59896 11.1648 9.60178 11.0864 9.60178C10.3967 9.60178 9.54639 9.41845 8.83113 9.19139C8.61531 9.1229 7.28819 8.68523 6.52961 8.0594L6.28516 8.69493L8.41295 9.75886C8.89886 10.0019 9.20078 10.4903 9.20078 11.0336Z" />
<path d="M23.1979 16.3636L21.8092 13.1894C21.2767 11.9722 20.2004 11.1002 18.9085 10.8278C17.3381 12.0809 15.3831 12.7773 13.3726 12.7989C12.7447 13.4824 12.4004 14.3631 12.4004 15.297V18.4C12.4004 19.2822 13.1181 20 14.0004 20C14.8826 20 15.6004 19.2822 15.6004 18.4V17.2721C15.6004 16.9015 15.688 16.5304 15.8537 16.1988L16.0426 15.8211L16.7581 16.1788L16.5693 16.5566C16.4588 16.7776 16.4004 17.025 16.4004 17.2721V17.8258C16.825 18.1968 17.3626 18.4 17.9317 18.4H18.0004V19.2H17.9317C17.3743 19.2 16.8395 19.0546 16.3695 18.783C16.1855 19.9249 15.1934 20.8 14.0004 20.8C13.7667 20.8 13.541 20.7658 13.3273 20.7032C13.2444 20.956 13.2004 21.2217 13.2004 21.4875C13.2004 22.8729 14.3275 24 15.7129 24C17.1514 24 18.6006 23.6784 19.9042 23.0701L20.8299 22.6381C22.5129 21.8527 23.6004 20.1451 23.6004 18.2879C23.6004 17.6215 23.465 16.9741 23.1979 16.3636Z" />
<path d="M5.0923 10.8279C3.80033 11.1003 2.72408 11.9723 2.19158 13.1895L0.802906 16.3636C0.535813 16.9741 0.400391 17.6215 0.400391 18.2879C0.400391 20.1451 1.48789 21.8528 3.17089 22.6381L4.09658 23.0701C5.40017 23.6784 6.8495 24 8.28795 24C9.6733 24 10.8004 22.8729 10.8004 21.4876C10.8004 21.2218 10.7564 20.956 10.6735 20.7032C10.4598 20.7658 10.2341 20.8 10.0004 20.8C8.80742 20.8 7.81536 19.9249 7.63138 18.783C7.16131 19.0546 6.62652 19.2 6.06913 19.2H6.00041V18.4H6.06908C6.63823 18.4 7.17584 18.1968 7.60044 17.8258V17.2721C7.60044 17.0251 7.54203 16.7776 7.4315 16.5565L7.24269 16.1788L7.95823 15.8211L8.14709 16.1988C8.31284 16.5304 8.40045 16.9015 8.40045 17.2721V18.4C8.40045 19.2822 9.1182 20 10.0004 20C10.8827 20 11.6004 19.2822 11.6004 18.4V15.2971C11.6004 14.3632 11.2561 13.4825 10.6281 12.7989C8.61772 12.7773 6.66275 12.0809 5.0923 10.8279Z" />
<path d="M8.36863 11.2313C8.38987 11.1675 8.4007 11.1009 8.4007 11.0336C8.4007 10.7952 8.26827 10.581 8.05504 10.4743L5.99648 9.44508L5.67871 10.2713C6.44985 10.8696 7.31905 11.3228 8.24071 11.6148L8.36863 11.2313Z" />
<path d="M12.1488 3.19055L14.0266 6.94631C14.1586 6.89836 14.2935 6.85228 14.4309 6.80859C14.554 6.76955 14.6763 6.73341 14.7977 6.69961L12.864 2.83219C12.8723 2.82352 12.8807 2.81498 12.8888 2.80612L14.1921 3.675C14.5111 3.88758 14.8822 3.99998 15.2655 3.99998C16.3326 3.99998 17.2007 3.13191 17.2007 2.0648V1.93514C17.2008 0.868078 16.3326 0 15.2655 0C14.8822 0 14.5111 0.112406 14.1921 0.324984L12.8888 1.19377C12.6692 0.952031 12.3524 0.799969 12.0007 0.799969C11.6491 0.799969 11.3323 0.952031 11.1126 1.19381L9.80941 0.324984C9.49042 0.112406 9.11927 0 8.73597 0C7.66886 0 6.80078 0.868078 6.80078 1.93519V2.06484C6.80078 3.13191 7.66886 3.99998 8.73597 3.99998C9.11927 3.99998 9.49042 3.88758 9.80941 3.675L11.1127 2.80622C11.1207 2.81512 11.1292 2.82366 11.1375 2.83228L9.20378 6.6997C9.32514 6.7335 9.44748 6.76964 9.57048 6.80869C9.70797 6.85233 9.84283 6.89845 9.97483 6.94641L11.8527 3.19064C11.9013 3.19659 11.9507 3.20006 12.0008 3.20006C12.0509 3.20002 12.1002 3.19655 12.1488 3.19055Z" />
</g>
<defs>
<clipPath id="clip0_472_6828">
<rect width="24" height="24" fill="white"/>
</clipPath>
</defs>
</svg>
