<svg width="24" height="24" viewBox="0 0 24 24" fill="none" xmlns="http://www.w3.org/2000/svg">
<path d="M20.4266 14.3891C21.6401 12.3945 21.9899 9.95737 21.3866 7.70212C20.3827 3.95062 16.9698 1.3305 13.0863 1.3305H12.5328C7.87232 1.3305 4.08069 5.12212 4.08069 9.78262V10.9039L2.50907 13.3192C2.32569 13.6009 2.27357 13.9481 2.36619 14.2714C2.45882 14.5946 2.68682 14.8612 2.99169 15.003L4.12044 15.5276L4.56744 18.0731C4.79469 19.3665 5.91294 20.3055 7.22657 20.3055H9.29544C9.56657 20.3055 9.80319 20.4982 9.85832 20.7634L10.1924 22.3706C10.2284 22.5446 10.3818 22.6691 10.5596 22.6691H18.5283C18.6412 22.6691 18.7481 22.6181 18.8193 22.5307C18.8906 22.4434 18.9187 22.3282 18.8954 22.218L18.3854 19.7632C18.1837 18.792 18.3566 17.7907 18.8722 16.9436L20.4266 14.3891ZM8.47569 11.304C8.11832 11.5822 7.65707 11.7352 7.17669 11.7352C6.69594 11.7352 6.23469 11.5819 5.87732 11.304C5.71382 11.1769 5.68457 10.941 5.81169 10.7779C5.93957 10.614 6.17507 10.5855 6.33782 10.7122C6.79044 11.0644 7.56219 11.0644 8.01482 10.7122C8.17794 10.5851 8.41344 10.614 8.54094 10.7779C8.66844 10.941 8.63919 11.1769 8.47569 11.304ZM17.0448 7.40512C17.0448 7.65037 16.8461 7.84912 16.6008 7.84912H16.0203V8.25375C16.0203 8.50312 15.8182 8.70562 15.5684 8.70562H9.97232C9.72294 8.70562 9.52044 8.5035 9.52044 8.25375V5.1675C9.52044 4.91812 9.72257 4.71562 9.97232 4.71562H15.5688C15.8182 4.71562 16.0207 4.91775 16.0207 5.1675V5.57212H16.6012C16.8464 5.57212 17.0452 5.77087 17.0452 6.01612V7.40512H17.0448ZM10.7362 7.86412C10.5292 7.86412 10.3612 7.69612 10.3612 7.48912V5.93212C10.3612 5.72512 10.5292 5.55712 10.7362 5.55712C10.9432 5.55712 11.1112 5.72512 11.1112 5.93212V7.48912C11.1112 7.69612 10.9432 7.86412 10.7362 7.86412Z" />
</svg>
