<svg width="24" height="24" viewBox="0 0 24 24" fill="none" xmlns="http://www.w3.org/2000/svg">
<g clip-path="url(#clip0_490_12984)">
<path d="M5.76209 18.3412H0.921875C0.533562 18.3412 0.21875 18.6561 0.21875 19.0444V23.2969C0.21875 23.6852 0.533562 24 0.921875 24H6.46527V19.0444C6.46522 18.6561 6.15045 18.3412 5.76209 18.3412Z" />
<path d="M12.7114 14.4037H8.57422C8.18591 14.4037 7.87109 14.7186 7.87109 15.1069V24H13.4145V15.1069C13.4145 14.7186 13.0997 14.4037 12.7114 14.4037Z" />
<path d="M22.3967 3.79734L23.8137 2.25938C24.0031 2.05406 24.0528 1.75641 23.9407 1.50094C23.8287 1.245 23.576 1.08 23.2967 1.08H18.7639V0.703125C18.7639 0.315 18.4494 0 18.0608 0C17.6727 0 17.3577 0.315 17.3577 0.703125V8.90625H15.5234C15.1351 8.90625 14.8203 9.22106 14.8203 9.60938V24H20.4832C20.8718 24 21.1864 23.685 21.1864 23.2969V9.60938C21.1864 9.22125 20.8718 8.90625 20.4832 8.90625H18.7639V6.39047H23.2967C23.5812 6.39047 23.8376 6.21891 23.9464 5.95594C24.0551 5.69297 23.9946 5.39016 23.7931 5.18953L22.3967 3.79734Z" />
<path d="M11.9322 6.0368C12.1048 6.3847 12.5265 6.52683 12.8745 6.35433C13.2224 6.18178 13.3646 5.7599 13.192 5.412C11.9173 2.84151 12.0463 3.10064 12.0277 3.06572C11.8956 2.81606 11.6237 2.66531 11.3342 2.69531C11.3322 2.6955 11.3302 2.69592 11.3282 2.69615C11.2707 2.70262 11.4243 2.67248 8.76111 3.23292C8.3811 3.31289 8.13791 3.68578 8.21783 4.0658C8.28753 4.39697 8.57971 4.62426 8.90516 4.62426C9.00303 4.62426 8.93999 4.63237 10.1766 4.37212C9.25457 6.18197 8.05452 7.83131 6.59722 9.2887C4.81114 11.0748 2.73599 12.4751 0.429409 13.4507C0.0717532 13.602 -0.0955437 14.0145 0.0557219 14.3722C0.207081 14.7301 0.619816 14.897 0.977191 14.7459C3.45139 13.6994 5.67678 12.1979 7.59153 10.2831C9.15214 8.72245 10.438 6.95597 11.4265 5.01722L11.9322 6.0368Z" />
</g>
<defs>
<clipPath id="clip0_490_12984">
<rect width="24" height="24" fill="white"/>
</clipPath>
</defs>
</svg>
