<svg width="24" height="24" viewBox="0 0 24 24" fill="none" xmlns="http://www.w3.org/2000/svg">
<path d="M21.1577 19.5795L20.1295 18.7313L17.8409 13.0313C19.0427 12.8771 20.02 11.9299 20.1321 10.7486C20.2022 10.0193 19.9705 9.32062 19.4807 8.78175C18.9977 8.25037 18.3085 7.9455 17.5904 7.9455H16.3465C16.6634 7.17413 16.7609 6.33788 16.6285 5.49338C16.3142 3.495 14.6264 1.88775 12.6149 1.67138C11.2937 1.52738 10.0304 1.93538 9.05162 2.81513C8.08562 3.68213 7.53174 4.92413 7.53174 6.22125C7.53174 7.0005 7.72749 7.75613 8.10212 8.43188C7.35587 8.77238 6.69737 9.27938 6.17837 9.91538L3.23612 13.524C1.40499 15.7699 1.57599 19.02 3.62499 20.9235C4.62737 21.8546 5.90237 22.356 7.24974 22.356C7.37537 22.356 7.50137 22.3515 7.62774 22.3429C9.09287 22.2416 10.4654 21.531 11.3935 20.3933L13.4327 17.8924L14.581 20.7521C14.9717 21.7264 15.9029 22.3556 16.9525 22.3556H20.1599C20.8292 22.3556 21.4082 21.9484 21.6351 21.3184C21.8612 20.6888 21.6741 20.0063 21.1577 19.5795V19.5795ZM11.5454 7.9455H14.7512C14.9586 7.9455 15.1262 8.11313 15.1262 8.3205C15.1262 8.52788 14.9586 8.6955 14.7512 8.6955H11.5454C11.338 8.6955 11.1704 8.52788 11.1704 8.3205C11.1704 8.11313 11.338 7.9455 11.5454 7.9455V7.9455ZM16.3172 13.0534H13.6885C13.129 13.0534 12.6062 13.3031 12.2552 13.7385L10.1121 16.3961C10.0382 16.488 9.92949 16.5356 9.81999 16.5356C9.73749 16.5356 9.65462 16.5086 9.58487 16.4524C9.42362 16.3223 9.39849 16.086 9.52862 15.9251L11.6717 13.2675C12.166 12.6548 12.9014 12.3034 13.6889 12.3034H16.3176C16.525 12.3034 16.6926 12.471 16.6926 12.6784C16.6926 12.8857 16.5242 13.0534 16.3172 13.0534V13.0534ZM1.97949 8.4615C1.77212 8.4615 1.60449 8.29387 1.60449 8.0865V2.34263C1.60449 2.13525 1.77212 1.96763 1.97949 1.96763C2.18687 1.96763 2.35449 2.13525 2.35449 2.34263V8.0865C2.35449 8.29387 2.18687 8.4615 1.97949 8.4615ZM3.90512 6.78375C3.69774 6.78375 3.53012 6.61613 3.53012 6.40875V2.34263C3.53012 2.13525 3.69774 1.96763 3.90512 1.96763C4.11249 1.96763 4.28012 2.13525 4.28012 2.34263V6.40875C4.28012 6.61613 4.11249 6.78375 3.90512 6.78375ZM5.83112 5.10563C5.62374 5.10563 5.45612 4.938 5.45612 4.73063V2.34263C5.45612 2.13525 5.62374 1.96763 5.83112 1.96763C6.03849 1.96763 6.20612 2.13525 6.20612 2.34263V4.73063C6.20612 4.938 6.03849 5.10563 5.83112 5.10563ZM22.021 8.4615C21.8136 8.4615 21.646 8.29387 21.646 8.0865V2.34263C21.646 2.13525 21.8136 1.96763 22.021 1.96763C22.2284 1.96763 22.396 2.13525 22.396 2.34263V8.0865C22.396 8.29387 22.228 8.4615 22.021 8.4615ZM20.0954 6.78375C19.888 6.78375 19.7204 6.61613 19.7204 6.40875V2.34263C19.7204 2.13525 19.888 1.96763 20.0954 1.96763C20.3027 1.96763 20.4704 2.13525 20.4704 2.34263V6.40875C20.4704 6.61613 20.3027 6.78375 20.0954 6.78375ZM18.1694 5.10563C17.962 5.10563 17.7944 4.938 17.7944 4.73063V2.34263C17.7944 2.13525 17.962 1.96763 18.1694 1.96763C18.3767 1.96763 18.5444 2.13525 18.5444 2.34263V4.73063C18.5444 4.938 18.3767 5.10563 18.1694 5.10563Z" />
</svg>
