<svg width="161" height="161" viewBox="0 0 161 161" fill="none" xmlns="http://www.w3.org/2000/svg">
<circle cx="80.5" cy="80.5" r="80.5" fill="#E9FAEF"/>
<g clip-path="url(#clip0_1445_33273)">
<path d="M129.502 62.2092C126.17 58.9338 120.767 58.9338 117.435 62.2092L86.029 93.0775L80.88 88.0166L68.8125 99.8776L77.7526 108.665C82.3234 113.157 89.7342 113.157 94.3052 108.665L129.502 74.0701C132.834 70.7949 132.834 65.4844 129.502 62.2092Z" fill="#2F4858"/>
<path d="M54.0352 82.2899L85.4409 51.4216C88.7733 48.1462 94.176 48.1462 97.5084 51.4216C100.841 54.697 100.841 60.0073 97.5084 63.2827L62.3116 97.8774C57.7408 102.37 50.33 102.37 45.759 97.8774L31.4993 83.8617C28.1669 80.5863 28.1669 75.276 31.4993 72.0006C34.8317 68.7254 40.2344 68.7254 43.5668 72.0006L54.0352 82.2899Z" fill="#2F4858"/>
</g>
<defs>
<clipPath id="clip0_1445_33273">
<rect width="103" height="67" fill="white" transform="translate(29 47)"/>
</clipPath>
</defs>
</svg>
