<svg width="24" height="24" viewBox="0 0 24 24" fill="none" xmlns="http://www.w3.org/2000/svg">
<path d="M11.8992 13.2525L5.5617 19.8862C5.3742 20.0812 5.12295 20.1938 4.8492 20.1975H4.83795C4.56795 20.1975 4.3167 20.0925 4.12545 19.9013C3.93045 19.71 3.82545 19.4513 3.8292 19.1813C3.83295 18.9075 3.9417 18.6525 4.14045 18.4612L10.7967 12.1012L11.8992 13.2525Z" />
<path d="M20.2013 19.1475C20.205 19.4213 20.1 19.6763 19.9088 19.8713C19.7138 20.0625 19.4475 20.1675 19.185 20.1638C18.9113 20.1638 18.6563 20.0512 18.4688 19.8525L12.1613 13.2525L12.03 13.1175L10.935 11.97L10.905 11.94C10.8713 11.9025 10.8338 11.8687 10.8 11.8387C10.2113 11.2612 9.45754 10.8938 8.66254 10.7925C7.62379 10.6575 6.41625 9.9975 5.43754 9.015L2.32129 5.9025L2.71879 5.505L6.43129 9.2175L7.09504 8.55375L3.38254 4.84125L3.78004 4.44375L7.49254 8.15625L8.15629 7.4925L4.44379 3.78L4.84129 3.3825L8.55379 7.095L9.21754 6.43125L5.50504 2.71875L5.90254 2.32125L9.01504 5.4375C10.0013 6.42 10.6463 7.5825 10.7888 8.6325C10.8975 9.435 11.2913 10.1962 11.8988 10.7887C11.9063 10.8 11.9175 10.8112 11.9288 10.8225L12.03 10.92L13.1288 11.97L13.2638 12.0975L19.89 18.4313C20.0888 18.6188 20.1975 18.8738 20.2013 19.1475V19.1475Z" />
<path d="M20.2461 6.26625C19.9986 7.20004 19.4024 8.17875 18.5624 9.015C18.0711 9.51 17.5349 9.915 16.9874 10.2187C16.4436 10.5225 15.8886 10.7175 15.3636 10.7888C14.5874 10.8938 13.8449 11.265 13.2636 11.8387L12.1611 10.785C12.7386 10.1962 13.1061 9.45 13.2074 8.65875C13.3461 7.605 13.9911 6.4275 14.9849 5.4375C16.1399 4.2825 17.5124 3.63375 18.5886 3.63375C19.1099 3.63375 19.5636 3.7875 19.8899 4.11C20.3586 4.5825 20.4861 5.3475 20.2461 6.26625V6.26625Z" />
</svg>
