<svg width="24" height="24" viewBox="0 0 24 24" fill="none" xmlns="http://www.w3.org/2000/svg">
<g clip-path="url(#clip0_480_11302)">
<path d="M5.69531 0C2.55492 0 0 2.55492 0 5.69531C0 8.8357 2.55492 11.3906 5.69531 11.3906C8.8357 11.3906 11.3906 8.8357 11.3906 5.69531C11.3906 2.55492 8.8357 0 5.69531 0ZM7.14844 3.60938C7.53572 3.60938 7.85156 3.92522 7.85156 4.3125C7.85156 4.69978 7.53572 5.01562 7.14844 5.01562C6.76116 5.01562 6.44531 4.69978 6.44531 4.3125C6.44531 3.92522 6.76116 3.60938 7.14844 3.60938ZM4.24219 3.60938C4.62947 3.60938 4.94531 3.92522 4.94531 4.3125C4.94531 4.69978 4.62947 5.01562 4.24219 5.01562C3.85491 5.01562 3.53906 4.69978 3.53906 4.3125C3.53906 3.92522 3.85491 3.60938 4.24219 3.60938ZM7.82264 7.38473C7.34184 8.088 6.54619 8.50786 5.69428 8.50786C4.83319 8.50786 4.03275 8.08092 3.55313 7.3658C3.3368 7.0433 3.42291 6.60652 3.74541 6.39019C4.06795 6.17386 4.50473 6.25997 4.72102 6.58247C4.93908 6.90755 5.30292 7.10161 5.69433 7.10161C6.08156 7.10161 6.44325 6.91073 6.66183 6.59105C6.88097 6.27052 7.31845 6.1882 7.63913 6.40744C7.95961 6.62663 8.04178 7.06416 7.82264 7.38473V7.38473Z" />
<path d="M5.69531 12.6094C2.55492 12.6094 0 15.1643 0 18.3047C0 21.4451 2.55492 24 5.69531 24C8.8357 24 11.3906 21.4451 11.3906 18.3047C11.3906 15.1643 8.8357 12.6094 5.69531 12.6094ZM7.14844 16.2188C7.53572 16.2188 7.85156 16.5346 7.85156 16.9219C7.85156 17.3092 7.53572 17.625 7.14844 17.625C6.76116 17.625 6.44531 17.3092 6.44531 16.9219C6.44531 16.5346 6.76116 16.2188 7.14844 16.2188ZM4.24219 16.2188C4.62947 16.2188 4.94531 16.5346 4.94531 16.9219C4.94531 17.3092 4.62947 17.625 4.24219 17.625C3.85491 17.625 3.53906 17.3092 3.53906 16.9219C3.53906 16.5346 3.85491 16.2188 4.24219 16.2188ZM7.63898 20.9807C7.31836 21.2 6.88092 21.1177 6.66173 20.7971C6.4432 20.4774 6.08152 20.2866 5.69423 20.2866C5.30283 20.2866 4.93898 20.4807 4.72092 20.8057C4.58527 21.008 4.36284 21.1173 4.13634 21.1173C4.00167 21.1173 3.86559 21.0787 3.74531 20.998C3.42281 20.7818 3.33675 20.3449 3.55303 20.0224C4.03266 19.3073 4.83314 18.8804 5.69419 18.8804C6.54609 18.8804 7.34175 19.3002 7.82255 20.0035C8.04178 20.324 7.95956 20.7616 7.63898 20.9807V20.9807Z" />
<path d="M18.3047 11.3906C21.4451 11.3906 24 8.8357 24 5.69531C24 2.55492 21.4451 0 18.3047 0C15.1643 0 12.6094 2.55492 12.6094 5.69531C12.6094 8.8357 15.1643 11.3906 18.3047 11.3906ZM19.7578 3.60938C20.1451 3.60938 20.4609 3.92522 20.4609 4.3125C20.4609 4.69978 20.1451 5.01562 19.7578 5.01562C19.3705 5.01562 19.0547 4.69978 19.0547 4.3125C19.0547 3.92522 19.3705 3.60938 19.7578 3.60938ZM16.8516 3.60938C17.2388 3.60938 17.5547 3.92522 17.5547 4.3125C17.5547 4.69978 17.2388 5.01562 16.8516 5.01562C16.4643 5.01562 16.1484 4.69978 16.1484 4.3125C16.1484 3.92522 16.4643 3.60938 16.8516 3.60938ZM16.828 6.60942H19.7813C20.1697 6.60942 20.4845 6.92423 20.4845 7.31255C20.4845 7.70086 20.1697 8.01567 19.7813 8.01567H16.828C16.4397 8.01567 16.1249 7.70086 16.1249 7.31255C16.1249 6.92423 16.4397 6.60942 16.828 6.60942Z" />
<path d="M18.3047 12.6094C15.1643 12.6094 12.6094 15.1643 12.6094 18.3047C12.6094 21.4451 15.1643 24 18.3047 24C21.4451 24 24 21.4451 24 18.3047C24 15.1643 21.4451 12.6094 18.3047 12.6094ZM15.7338 16.1958C15.952 15.8745 16.3892 15.7909 16.7105 16.0091L17.4096 16.4838C17.7309 16.702 17.8145 17.1392 17.5963 17.4605C17.4603 17.6608 17.2391 17.7687 17.0139 17.7687C16.878 17.7687 16.7406 17.7294 16.6196 17.6472L15.9205 17.1725C15.5992 16.9543 15.5157 16.517 15.7338 16.1958ZM20.432 19.9941C19.9512 20.6974 19.1556 21.1172 18.3037 21.1172C17.4426 21.1172 16.6421 20.6903 16.1625 19.9751C15.9462 19.6526 16.0323 19.2158 16.3548 18.9995C16.6773 18.7832 17.1141 18.8692 17.3304 19.1918C17.5484 19.5169 17.9122 19.711 18.3037 19.711C18.6909 19.711 19.0526 19.5201 19.2712 19.2004C19.4903 18.8799 19.9278 18.7976 20.2485 19.0168C20.569 19.236 20.6512 19.6735 20.432 19.9941V19.9941ZM20.6888 17.1725L19.9897 17.6472C19.8688 17.7293 19.7313 17.7687 19.5954 17.7687C19.3703 17.7687 19.1491 17.6608 19.0131 17.4605C18.7949 17.1392 18.8785 16.7019 19.1997 16.4838L19.8988 16.0091C20.2201 15.7909 20.6574 15.8745 20.8755 16.1957C21.0937 16.517 21.0101 16.9543 20.6888 17.1725Z" />
</g>
<defs>
<clipPath id="clip0_480_11302">
<rect width="24" height="24" fill="white"/>
</clipPath>
</defs>
</svg>
