<svg width="18" height="24" viewBox="0 0 18 24" fill="none" xmlns="http://www.w3.org/2000/svg">
<path fill-rule="evenodd" clip-rule="evenodd" d="M10.3553 17.0122V18.6766H11.4613C12.2095 18.6766 12.8162 19.2834 12.8162 20.0316C12.8162 20.7798 12.2095 21.3866 11.4613 21.3866H10.3553V22.645C10.3553 23.3932 9.74854 24 9.00032 24C8.2521 24 7.64535 23.3932 7.64535 22.645V21.3866H6.53896C5.79098 21.3866 5.18399 20.7797 5.18399 20.0316C5.18399 19.2836 5.79098 18.6766 6.53896 18.6766H7.64535V17.0122C3.53446 16.3568 0.44043 12.7844 0.44043 8.55989C0.44043 3.83962 4.28001 0 9.00032 0C13.7206 0 17.5604 3.83958 17.5604 8.55989C17.5604 12.7845 14.4663 16.3568 10.3553 17.0122ZM3.15018 8.55989C3.15018 11.7851 5.77513 14.4098 9.00027 14.4098C12.2256 14.4098 14.8504 11.7852 14.8504 8.55989C14.8504 5.33456 12.2255 2.70998 9.00027 2.70998C5.77518 2.70998 3.15018 5.33466 3.15018 8.55989Z" />
</svg>
