<svg width="24" height="24" viewBox="0 0 24 24" fill="none" xmlns="http://www.w3.org/2000/svg">
<path d="M23.6253 13.8375C23.6253 15.9 21.9003 17.625 19.8378 17.625C17.7378 17.625 16.0503 15.9 16.0503 13.8375C16.0503 11.7375 17.7753 10.05 19.8378 10.05C21.9003 10.0125 23.6253 11.7375 23.6253 13.8375ZM13.2378 20.85C5.62531 22.125 3.52531 21.4875 2.02531 17.55C1.72531 16.725 0.60031 12.3 1.57531 11.1C1.68781 10.95 1.91281 10.7625 2.43781 10.8375C3.11281 10.95 3.75031 11.1375 4.42531 11.325C5.77531 11.7 7.27531 12.15 9.60031 12.15C14.2128 12.15 16.6878 8.5875 17.4003 5.5125L18.5628 0.8625L20.2503 1.3125L18.2253 9.5625C16.5003 10.2 15.2628 11.8875 15.2628 13.8375C15.2628 15 15.7128 16.0875 16.4628 16.875L16.1628 18.1125C16.1253 18.1875 15.5628 20.4 13.2378 20.85ZM20.4003 21.075V23.25H19.2378V21.1125C19.2378 19.3125 18.1128 18.225 17.5128 17.775C18.1878 18.1875 18.9753 18.4125 19.8378 18.4125C20.6628 18.4125 21.4503 18.1875 22.1628 17.775C21.5253 18.1875 20.4003 19.3125 20.4003 21.075Z" />
<path d="M13.0882 13.6125C13.2382 13.4625 13.2382 13.2375 13.0882 13.0875C12.9382 12.9375 12.7132 12.9375 12.5632 13.0875C12.5632 13.0875 11.3632 14.1375 7.7257 13.4625H7.6132C6.1132 13.1625 5.0257 12.975 4.3507 13.5C3.9382 13.8 3.7507 14.325 3.6757 15.075C3.5257 17.1375 5.3632 19.725 5.4382 19.8375C5.5132 19.95 5.6257 19.9875 5.7382 19.9875C5.8132 19.9875 5.8882 19.95 5.9632 19.9125C6.1507 19.8 6.1882 19.575 6.0382 19.3875C6.0382 19.35 4.2757 16.9125 4.4257 15.1125C4.4632 14.5875 4.5757 14.25 4.8007 14.0625C5.2132 13.725 6.2257 13.9125 7.4632 14.1375H7.5757C11.7007 14.9625 13.0507 13.6875 13.0882 13.6125Z" />
<path d="M13.7258 18.6L8.51328 19.2375C8.32578 19.275 8.17578 19.4625 8.17578 19.65C8.21328 19.8375 8.36328 19.9875 8.55078 19.9875H8.58828L13.8008 19.35C13.9883 19.3125 14.1383 19.125 14.1383 18.9375C14.1383 18.7125 13.9508 18.5625 13.7258 18.6Z" />
<path d="M13.7254 16.9875L8.55039 17.625C8.36289 17.6625 8.21289 17.85 8.21289 18.0375C8.25039 18.225 8.40039 18.375 8.58789 18.375H8.62539L13.8379 17.7375C14.0254 17.7 14.1754 17.5125 14.1754 17.325C14.1379 17.1375 13.9504 16.9875 13.7254 16.9875Z" />
</svg>
