<svg width="25" height="24" viewBox="0 0 25 24" fill="none" xmlns="http://www.w3.org/2000/svg">
<path d="M12.8335 0C10.4601 0 8.14005 0.703788 6.16666 2.02236C4.19327 3.34094 2.6552 5.21509 1.74695 7.4078C0.838696 9.60051 0.601055 12.0133 1.06408 14.3411C1.5271 16.6689 2.66999 18.8071 4.34822 20.4853C6.02645 22.1635 8.16465 23.3064 10.4924 23.7694C12.8202 24.2324 15.233 23.9948 17.4257 23.0866C19.6184 22.1783 21.4926 20.6402 22.8111 18.6668C24.1297 16.6935 24.8335 14.3734 24.8335 12C24.8301 8.81846 23.5647 5.76821 21.315 3.51852C19.0653 1.26883 16.015 0.00344108 12.8335 0ZM12.8335 21C11.0535 21 9.31341 20.4722 7.83337 19.4832C6.35333 18.4943 5.19977 17.0887 4.51859 15.4442C3.8374 13.7996 3.65917 11.99 4.00643 10.2442C4.3537 8.49836 5.21087 6.89471 6.46954 5.63604C7.72821 4.37737 9.33186 3.5202 11.0777 3.17293C12.8235 2.82567 14.6331 3.0039 16.2777 3.68508C17.9222 4.36627 19.3278 5.51983 20.3167 6.99987C21.3057 8.47991 21.8335 10.22 21.8335 12C21.8306 14.3861 20.8814 16.6736 19.1942 18.3607C17.5071 20.0479 15.2196 20.9971 12.8335 21Z" fill="#ffffff"/>
<path d="M12.3785 9.545H12.0785C11.6855 9.53535 11.303 9.67285 11.0061 9.93054C10.7092 10.1882 10.5193 10.5475 10.4735 10.938C10.4473 11.3286 10.5749 11.714 10.829 12.0118C11.0831 12.3097 11.4436 12.4963 11.8335 12.532V17.182C11.8335 17.5798 11.9915 17.9614 12.2728 18.2427C12.5541 18.524 12.9357 18.682 13.3335 18.682C13.7313 18.682 14.1129 18.524 14.3942 18.2427C14.6755 17.9614 14.8335 17.5798 14.8335 17.182V12C14.8335 11.3489 14.5749 10.7245 14.1144 10.2641C13.654 9.80365 13.0296 9.545 12.3785 9.545Z" fill="#ffffff"/>
<path d="M12.6635 8.466C13.0029 8.466 13.3347 8.36536 13.6169 8.1768C13.8991 7.98825 14.119 7.72024 14.2489 7.40668C14.3788 7.09313 14.4127 6.7481 14.3465 6.41523C14.2803 6.08235 14.1169 5.77659 13.8769 5.5366C13.6369 5.29662 13.3311 5.13318 12.9983 5.06697C12.6654 5.00076 12.3204 5.03474 12.0068 5.16462C11.6933 5.2945 11.4253 5.51445 11.2367 5.79664C11.0481 6.07884 10.9475 6.41061 10.9475 6.75C10.9474 6.97539 10.9917 7.19859 11.0779 7.40684C11.164 7.61509 11.2904 7.80432 11.4498 7.96369C11.6092 8.12306 11.7984 8.24945 12.0067 8.33564C12.2149 8.42183 12.4381 8.46613 12.6635 8.466Z" fill="#ffffff"/>
</svg>
