<svg width="22" height="24" viewBox="0 0 22 24" fill="none" xmlns="http://www.w3.org/2000/svg">
<path d="M11.167 0C8.38328 0.00344012 5.71456 1.11079 3.74617 3.07918C1.77778 5.04756 0.670432 7.71628 0.666992 10.5C0.666992 13.326 2.86699 17.266 7.20799 22.209C7.70304 22.7715 8.31225 23.2222 8.99507 23.5308C9.67789 23.8395 10.4186 23.9992 11.168 23.9992C11.9173 23.9992 12.6581 23.8395 13.3409 23.5308C14.0237 23.2222 14.6329 22.7715 15.128 22.209C19.467 17.267 21.667 13.327 21.667 10.5C21.6636 7.71628 20.5562 5.04756 18.5878 3.07918C16.6194 1.11079 13.9507 0.00344012 11.167 0ZM12.873 20.231C12.6549 20.4654 12.3909 20.6524 12.0974 20.7802C11.8039 20.9081 11.4871 20.974 11.167 20.974C10.8468 20.974 10.5301 20.9081 10.2366 20.7802C9.94308 20.6524 9.67905 20.4654 9.46099 20.231C5.77799 16.036 3.66099 12.489 3.66099 10.501C3.66099 8.51188 4.45117 6.60422 5.85769 5.1977C7.26421 3.79118 9.17187 3.001 11.161 3.001C13.1501 3.001 15.0578 3.79118 16.4643 5.1977C17.8708 6.60422 18.661 8.51188 18.661 10.501C18.667 12.489 16.556 16.036 12.873 20.231Z" fill="#039590"/>
<path d="M11.167 6.055C10.3041 6.055 9.46053 6.31089 8.74304 6.7903C8.02555 7.26971 7.46633 7.95112 7.13611 8.74835C6.80588 9.54559 6.71948 10.4228 6.88783 11.2692C7.05617 12.1155 7.47171 12.8929 8.08189 13.5031C8.69206 14.1133 9.46947 14.5288 10.3158 14.6972C11.1622 14.8655 12.0394 14.7791 12.8366 14.4489C13.6339 14.1187 14.3153 13.5594 14.7947 12.842C15.2741 12.1245 15.53 11.2809 15.53 10.418C15.5287 9.26127 15.0686 8.15229 14.2506 7.33435C13.4327 6.51642 12.3237 6.05632 11.167 6.055ZM11.167 11.781C10.8974 11.781 10.6339 11.7011 10.4097 11.5513C10.1856 11.4015 10.0109 11.1887 9.90774 10.9396C9.80458 10.6905 9.77759 10.4165 9.83018 10.1521C9.88277 9.8877 10.0126 9.64483 10.2032 9.45421C10.3938 9.26359 10.6367 9.13378 10.9011 9.08119C11.1655 9.0286 11.4395 9.05559 11.6886 9.15875C11.9376 9.26191 12.1505 9.43661 12.3003 9.66076C12.4501 9.8849 12.53 10.1484 12.53 10.418C12.5297 10.7794 12.386 11.1259 12.1305 11.3815C11.8749 11.637 11.5284 11.7807 11.167 11.781Z" fill="#039590"/>
</svg>
