<svg width="24" height="24" viewBox="0 0 24 24" fill="none" xmlns="http://www.w3.org/2000/svg">
<path d="M9.58152 11.743C9.84655 11.9641 10.1226 12.1949 10.4082 12.4365C10.6939 12.1949 10.9699 11.9641 11.235 11.743C13.3505 9.97767 14.627 8.91131 14.627 7.56412C14.627 6.45862 13.871 5.62505 12.8692 5.62505C11.5989 5.62505 11.0619 6.86925 11.0564 6.88162L11.0553 6.88444C10.4334 6.88439 10.3833 6.88439 9.76142 6.88434C9.72983 6.81427 9.18669 5.625 7.94727 5.625C6.94545 5.625 6.18945 6.45858 6.18945 7.56408C6.18945 8.91127 7.46595 9.97763 9.58152 11.743V11.743Z" />
<path d="M13.9238 24V19.6875H17.4395C18.6026 19.6875 19.5488 18.7413 19.5488 17.5781V15.2003L22.7316 13.632L19.5461 8.92364C19.4308 3.98325 15.3761 0 10.4082 0C5.3682 0 1.26758 4.10063 1.26758 9.14062C1.26758 11.6311 2.28861 14.0165 4.08008 15.7365V24H13.9238ZM7.94727 4.21875C9.11802 4.21875 9.91452 4.79761 10.4082 5.35036C10.9019 4.79761 11.6984 4.21875 12.8691 4.21875C14.6435 4.21875 16.0332 5.68819 16.0332 7.56408C16.0332 9.56977 14.4828 10.8634 12.1365 12.8224C11.7369 13.1561 10.4082 14.2857 10.4082 14.2857C10.4082 14.2857 9.07953 13.1561 8.67992 12.8224C6.33364 10.8634 4.7832 9.56977 4.7832 7.56408C4.7832 5.68819 6.173 4.21875 7.94727 4.21875V4.21875Z" />
</svg>
