<svg width="24" height="24" viewBox="0 0 24 24" fill="none" xmlns="http://www.w3.org/2000/svg">
<path d="M24 12C24 9.62663 23.2962 7.30655 21.9776 5.33316C20.6591 3.35977 18.7849 1.8217 16.5922 0.913451C14.3995 0.00519943 11.9867 -0.232441 9.65892 0.230582C7.33115 0.693605 5.19295 1.83649 3.51472 3.51472C1.83649 5.19295 0.693605 7.33115 0.230582 9.65892C-0.232441 11.9867 0.00519943 14.3995 0.913451 16.5922C1.8217 18.7849 3.35977 20.6591 5.33316 21.9776C7.30655 23.2962 9.62663 24 12 24C15.1815 23.9966 18.2318 22.7312 20.4815 20.4815C22.7312 18.2318 23.9966 15.1815 24 12ZM9.46501 17.707L5.87901 14.121C5.60038 13.8424 5.37935 13.5117 5.22856 13.1477C5.07776 12.7837 5.00015 12.3935 5.00015 11.9995C5.00015 11.6055 5.07776 11.2153 5.22856 10.8513C5.37935 10.4873 5.60038 10.1566 5.87901 9.87801L9.46501 6.29301L9.49001 6.26901C9.58357 6.17369 9.69527 6.09808 9.81853 6.04664C9.9418 5.99521 10.0741 5.96898 10.2077 5.96952C10.3412 5.97005 10.4733 5.99734 10.5962 6.04977C10.719 6.10219 10.8301 6.1787 10.9229 6.27476C11.0157 6.37083 11.0883 6.48451 11.1364 6.6091C11.1846 6.73368 11.2073 6.86665 11.2032 7.00015C11.1991 7.13365 11.1683 7.26498 11.1126 7.38638C11.0569 7.50778 10.9775 7.6168 10.879 7.70701L7.58601 11L18 10.993C18.2652 10.993 18.5196 11.0984 18.7071 11.2859C18.8946 11.4734 19 11.7278 19 11.993C19 12.2582 18.8946 12.5126 18.7071 12.7001C18.5196 12.8876 18.2652 12.993 18 12.993L7.58701 13L10.879 16.293C10.9745 16.3853 11.0507 16.4956 11.1031 16.6176C11.1555 16.7396 11.1831 16.8708 11.1843 17.0036C11.1854 17.1364 11.1601 17.2681 11.1098 17.391C11.0595 17.5139 10.9853 17.6255 10.8914 17.7194C10.7975 17.8133 10.6859 17.8875 10.563 17.9378C10.4401 17.9881 10.3084 18.0134 10.1756 18.0123C10.0428 18.0111 9.9116 17.9835 9.7896 17.9311C9.6676 17.8787 9.55725 17.8025 9.46501 17.707Z" fill="#2F4858"/>
</svg>
