<svg width="16" height="24" viewBox="0 0 16 24" fill="none" xmlns="http://www.w3.org/2000/svg">
<path d="M8.7845 9.26702V5.83554L11.0051 7.13276C11.1845 7.22762 11.3931 7.24874 11.5875 7.19172C11.7819 7.13471 11.9469 7.00396 12.0482 6.82679C12.1495 6.64962 12.1792 6.43974 12.131 6.24098C12.0829 6.04221 11.9606 5.86995 11.7898 5.76017L9.56918 4.46295L11.7898 3.16573C11.9677 3.05856 12.0972 2.88539 12.1507 2.6831C12.2042 2.4808 12.1775 2.26538 12.0762 2.08273C11.972 1.90086 11.8007 1.76821 11.5999 1.71392C11.3991 1.65962 11.1852 1.68811 11.0051 1.79314L8.7845 3.09036V1.28932C8.77942 1.08051 8.69512 0.881676 8.54905 0.733981C8.40298 0.586286 8.20633 0.501048 7.99982 0.495917C7.7919 0.496545 7.59267 0.580338 7.44565 0.728994C7.29863 0.877651 7.21576 1.07909 7.21514 1.28932V3.09036L4.99449 1.79314C4.81443 1.68811 4.60052 1.65962 4.39971 1.71392C4.19889 1.76821 4.02759 1.90086 3.92341 2.08273C3.82274 2.26552 3.79633 2.48073 3.84979 2.68285C3.90324 2.88497 4.03235 3.05814 4.20981 3.16573L6.43046 4.46295L4.20981 5.76017C4.03902 5.86995 3.91678 6.04221 3.86863 6.24098C3.82048 6.43974 3.85014 6.64962 3.95142 6.82679C4.05271 7.00396 4.21777 7.13471 4.41215 7.19172C4.60652 7.24874 4.81516 7.22762 4.99449 7.13276L7.21514 5.83554V9.26702C5.42135 9.46981 3.77243 10.3594 2.60703 11.753C1.44163 13.1466 0.848209 14.9386 0.94864 16.7608C1.04907 18.583 1.83573 20.2972 3.14706 21.5512C4.45839 22.8053 6.19485 23.5041 7.99982 23.5041C9.80478 23.5041 11.5412 22.8053 12.8526 21.5512C14.1639 20.2972 14.9506 18.583 15.051 16.7608C15.1514 14.9386 14.558 13.1466 13.3926 11.753C12.2272 10.3594 10.5783 9.46981 8.7845 9.26702ZM7.99982 21.9179C6.91345 21.9179 5.85148 21.5922 4.9482 20.9819C4.04492 20.3716 3.3409 19.5042 2.92517 18.4894C2.50944 17.4746 2.40066 16.3579 2.6126 15.2805C2.82454 14.2032 3.34767 13.2136 4.11585 12.4369C4.88403 11.6602 5.86274 11.1312 6.92823 10.9169C7.99372 10.7026 9.09813 10.8126 10.1018 11.233C11.1055 11.6533 11.9633 12.3652 12.5669 13.2785C13.1704 14.1918 13.4926 15.2656 13.4926 16.364C13.491 17.8365 12.9118 19.2483 11.8821 20.2895C10.8523 21.3307 9.45611 21.9163 7.99982 21.9179Z" />
<path fill-rule="evenodd" clip-rule="evenodd" d="M11.0051 7.13276L8.7845 5.83554V9.26702C10.5783 9.46981 12.2272 10.3594 13.3926 11.753C14.558 13.1466 15.1514 14.9386 15.051 16.7608C14.9506 18.583 14.1639 20.2972 12.8526 21.5512C11.5412 22.8053 9.80478 23.5041 7.99982 23.5041C6.19485 23.5041 4.45839 22.8053 3.14706 21.5512C1.83573 20.2972 1.04907 18.583 0.94864 16.7608C0.848209 14.9386 1.44163 13.1466 2.60703 11.753C3.77243 10.3594 5.42135 9.46981 7.21514 9.26702V5.83554L4.99449 7.13276C4.81516 7.22762 4.60652 7.24874 4.41215 7.19172C4.21777 7.13471 4.05271 7.00396 3.95142 6.82679C3.85014 6.64962 3.82048 6.43974 3.86863 6.24098C3.91678 6.04221 4.03902 5.86995 4.20981 5.76017L6.43046 4.46295L4.20981 3.16573C4.03235 3.05814 3.90324 2.88497 3.84979 2.68285C3.79633 2.48073 3.82274 2.26552 3.92341 2.08273C4.02759 1.90086 4.19889 1.76821 4.39971 1.71392C4.60052 1.65962 4.81443 1.68811 4.99449 1.79314L7.21514 3.09036V1.28932C7.21576 1.07909 7.29863 0.877651 7.44565 0.728994C7.59267 0.580338 7.7919 0.496545 7.99982 0.495917C8.20633 0.501048 8.40298 0.586286 8.54905 0.733981C8.69512 0.881676 8.77942 1.08051 8.7845 1.28932V3.09036L11.0051 1.79314C11.1852 1.68811 11.3991 1.65962 11.5999 1.71392C11.8007 1.76821 11.972 1.90086 12.0762 2.08273C12.1775 2.26538 12.2042 2.4808 12.1507 2.6831C12.0972 2.88539 11.9677 3.05856 11.7898 3.16573L9.56918 4.46295L11.7898 5.76017C11.9606 5.86995 12.0829 6.04221 12.131 6.24098C12.1792 6.43974 12.1495 6.64962 12.0482 6.82679C11.9469 7.00396 11.7819 7.13471 11.5875 7.19172C11.3931 7.24874 11.1845 7.22762 11.0051 7.13276ZM10.5495 4.46295L12.0442 5.33605L12.0529 5.34169C12.3305 5.52009 12.5291 5.80002 12.6073 6.123C12.6856 6.44599 12.6374 6.78705 12.4728 7.07495C12.3082 7.36285 12.04 7.57532 11.7241 7.66797C11.4083 7.76062 11.0692 7.72629 10.7778 7.57215L10.7687 7.56733L9.27492 6.69472V8.83654C11.0232 9.13928 12.6158 10.056 13.7671 11.4328C15.0134 12.9233 15.6481 14.8396 15.5407 16.7884C15.4333 18.7371 14.592 20.5703 13.1896 21.9115C11.7872 23.2527 9.93013 24 7.99982 24C6.06951 24 4.21246 23.2527 2.81007 21.9115C1.40767 20.5703 0.566381 18.7371 0.458975 16.7884C0.351569 14.8396 0.986201 12.9233 2.23253 11.4328C3.38384 10.056 4.97639 9.13928 6.72471 8.83654V6.69472L5.23093 7.56733L5.22182 7.57215C4.9304 7.72629 4.59136 7.76062 4.2755 7.66797C3.95965 7.57532 3.69141 7.36285 3.52683 7.07495C3.36224 6.78705 3.31404 6.44599 3.39228 6.123C3.47053 5.80001 3.66917 5.52009 3.94671 5.34169L3.95548 5.33605L5.4501 4.46295L3.95758 3.59107C3.6709 3.41727 3.46236 3.13746 3.37601 2.81095C3.28966 2.48444 3.33231 2.13676 3.49494 1.84148L3.49897 1.83415C3.66827 1.53861 3.9467 1.3231 4.27302 1.23487C4.59934 1.14664 4.94695 1.19294 5.23955 1.3636L6.72471 2.23118V1.28784C6.72572 0.946611 6.86023 0.619645 7.09887 0.378355C7.3375 0.137066 7.66087 0.00105993 7.99835 4.08178e-05L8.01187 0C8.34424 0.00825778 8.66074 0.145633 8.89583 0.383342C9.13093 0.621051 9.26661 0.941073 9.27477 1.27714L9.27507 1.28932L9.27492 2.23118L10.7598 1.36377C11.0524 1.1931 11.4003 1.14664 11.7266 1.23487C12.0529 1.3231 12.3313 1.53864 12.5006 1.83419L12.5041 1.84021C12.6678 2.13561 12.711 2.48403 12.6245 2.81119C12.538 3.13836 12.3286 3.41843 12.0408 3.59175L12.0352 3.59514L10.5495 4.46295ZM5.22067 20.5696C6.04315 21.1253 7.01011 21.4219 7.99929 21.422C9.3257 21.4206 10.5974 20.8872 11.5353 19.9388C12.4732 18.9905 13.0007 17.7047 13.0021 16.3635C13.002 15.3633 12.7087 14.3856 12.1591 13.554C11.6094 12.7222 10.8282 12.0739 9.91413 11.6911C9.00007 11.3083 7.99427 11.2081 7.02391 11.4033C6.05355 11.5984 5.16222 12.0802 4.46263 12.7875C3.76304 13.4949 3.28662 14.3961 3.0936 15.3773C2.90059 16.3584 2.99965 17.3754 3.37826 18.2996C3.75688 19.2239 4.39804 20.0138 5.22067 20.5696ZM13.4926 16.364C13.4926 15.2656 13.1704 14.1918 12.5669 13.2785C11.9633 12.3652 11.1055 11.6533 10.1018 11.233C9.09813 10.8126 7.99372 10.7026 6.92823 10.9169C5.86274 11.1312 4.88403 11.6602 4.11585 12.4369C3.34767 13.2136 2.82454 14.2032 2.6126 15.2805C2.40066 16.3579 2.50944 17.4746 2.92517 18.4894C3.3409 19.5042 4.04492 20.3716 4.9482 20.9819C5.85148 21.5922 6.91345 21.9179 7.99982 21.9179C9.45611 21.9163 10.8523 21.3307 11.8821 20.2895C12.9118 19.2483 13.491 17.8365 13.4926 16.364Z" />
</svg>
