<svg width="24" height="24" viewBox="0 0 24 24" fill="none" xmlns="http://www.w3.org/2000/svg">
<path d="M2.5293 20.2375C3.32679 20.9695 4.32352 21.4486 5.39336 21.614C5.51008 21.0269 5.48849 20.4208 5.33032 19.8435C5.17214 19.2662 4.88172 18.7337 4.48206 18.2881L2.5293 20.2375Z" />
<path d="M12.6128 19.4161C12.2983 19.4161 11.9908 19.5094 11.7293 19.6841C11.4677 19.8589 11.2639 20.1073 11.1435 20.3979C11.0231 20.6885 10.9917 21.0083 11.053 21.3168C11.1144 21.6253 11.2659 21.9087 11.4883 22.1311C11.7107 22.3535 11.9941 22.505 12.3026 22.5664C12.6111 22.6277 12.9309 22.5962 13.2215 22.4759C13.5121 22.3555 13.7605 22.1516 13.9353 21.8901C14.11 21.6285 14.2033 21.3211 14.2033 21.0065C14.2028 20.5848 14.0351 20.1806 13.7369 19.8824C13.4388 19.5842 13.0345 19.4165 12.6128 19.4161Z" />
<path d="M11.732 15.8024C11.4668 15.8515 11.1976 15.8763 10.9278 15.8764C9.85319 15.8765 8.81684 15.4773 8.01999 14.7562L6.5791 16.1946L10.2975 19.9064C11.232 18.8967 11.7495 17.5705 11.7459 16.1947C11.7459 16.0631 11.7413 15.9324 11.732 15.8024Z" />
<path d="M4.81445 17.9568C5.25966 18.4548 5.58534 19.0479 5.76669 19.6908C5.94804 20.3337 5.98027 21.0096 5.86094 21.6668C6.60643 21.7203 7.35498 21.6211 8.06082 21.3753C8.76666 21.1296 9.41494 20.7424 9.96602 20.2375L6.2477 16.5258L4.81445 17.9568Z" />
<path d="M16.1247 21.8191C16.1109 21.8286 16.0991 21.8407 16.0899 21.8548C16.0808 21.8688 16.0745 21.8846 16.0715 21.9011C16.0684 21.9176 16.0686 21.9345 16.0722 21.9509C16.0757 21.9673 16.0824 21.9829 16.0919 21.9967C16.2122 22.1704 16.3965 22.2893 16.6043 22.3275C16.8121 22.3657 17.0266 22.32 17.2008 22.2005L17.9405 21.6919C18.041 21.6224 18.1243 21.5307 18.1838 21.4239L17.3536 20.9742L16.1247 21.8191Z" />
<path d="M16.8903 20.7235L15.5488 19.9969L16.3206 21.1153L16.8903 20.7235Z" />
<path d="M20.6328 14.7625L15.2726 15.1086L15.0303 16.2383L20.3897 16.6317C20.5326 16.6418 20.675 16.6059 20.796 16.5293L22.1891 15.6414L21.2382 14.9372C21.0639 14.8081 20.849 14.7461 20.6328 14.7625Z" />
<path d="M21.6936 4.04172C21.4624 3.60133 21.1131 3.2341 20.6848 2.98126L20.3408 3.72611L21.5767 4.2947L21.6936 4.04172Z" />
<path d="M19.7612 19.6426L14.6945 17.8055L14.4648 18.8766L19.1734 21.427C19.3769 21.5375 19.6151 21.5655 19.8387 21.5049L21.0006 21.1922L20.0775 19.8839C19.9993 19.7729 19.8889 19.6886 19.7612 19.6426Z" />
<path d="M20.4376 17.102C20.4104 17.102 20.3831 17.101 20.356 17.0991L14.9317 16.7006L14.7939 17.3428L19.9212 19.2018C19.9711 19.22 20.0196 19.2417 20.0665 19.2667L22.0006 18.4495L20.6076 17.0887C20.5514 17.0974 20.4945 17.1019 20.4376 17.102Z" />
<path d="M13.335 18.5733L14.1162 14.9177L14.8029 15.0645L14.0217 18.7201L13.335 18.5733Z" />
<path d="M15.5501 14.6209L16.4815 12.6038C16.3379 12.5575 16.1973 12.5027 16.0602 12.4397C15.9232 12.3764 15.7899 12.3051 15.6611 12.2263L14.5918 14.5419L15.098 14.6501L15.5501 14.6209Z" />
<path d="M13.0065 14.3959L12.9439 14.3052C12.7055 13.9603 12.6033 13.5392 12.6571 13.1233C12.696 12.8221 12.622 12.5172 12.4493 12.2674L6.26602 3.30748C6.07217 3.02781 5.77546 2.83628 5.44077 2.77479C5.10609 2.7133 4.76068 2.78685 4.48008 2.97935C4.34135 3.07462 4.22277 3.19631 4.13114 3.33747C4.0395 3.47863 3.97661 3.63647 3.94606 3.80197C3.91552 3.96746 3.91791 4.13736 3.95311 4.30193C3.98831 4.4665 4.05563 4.62251 4.15121 4.76102L8.14496 10.5479C9.11334 10.8716 9.98243 11.4384 10.669 12.1941C11.3556 12.9498 11.8366 13.8691 12.0661 14.864C12.3279 14.6206 12.6544 14.458 13.0065 14.3959ZM4.96749 4.34894C4.94187 4.366 4.91314 4.37785 4.88294 4.3838C4.85274 4.38976 4.82167 4.38971 4.79149 4.38365C4.76131 4.3776 4.73262 4.36566 4.70706 4.34851C4.6815 4.33137 4.65956 4.30936 4.6425 4.28374L4.58916 4.20326C4.5721 4.17764 4.56026 4.14891 4.5543 4.11871C4.54835 4.08851 4.5484 4.05744 4.55445 4.02726C4.56051 3.99708 4.57245 3.96839 4.58959 3.94283C4.60673 3.91727 4.62874 3.89533 4.65436 3.87827C4.67998 3.86122 4.70871 3.84937 4.73891 3.84342C4.76911 3.83746 4.80018 3.83751 4.83036 3.84357C4.86054 3.84962 4.88923 3.86156 4.91479 3.8787C4.94035 3.89585 4.96229 3.91786 4.97935 3.94348L5.03288 4.02396C5.04993 4.04959 5.06176 4.07833 5.0677 4.10854C5.07364 4.13874 5.07357 4.16982 5.0675 4.2C5.06143 4.23018 5.04947 4.25886 5.03231 4.28442C5.01515 4.30998 4.99312 4.3319 4.96749 4.34894ZM7.44717 8.07419C7.42155 8.09125 7.39283 8.1031 7.36263 8.10905C7.33243 8.11501 7.30136 8.11496 7.27118 8.1089C7.241 8.10285 7.21231 8.09091 7.18675 8.07376C7.16118 8.05662 7.13925 8.03461 7.12219 8.00899L5.11758 4.99751C5.10002 4.9719 5.08772 4.94305 5.0814 4.91265C5.07508 4.88225 5.07486 4.85089 5.08076 4.8204C5.08666 4.78992 5.09856 4.76091 5.11577 4.73506C5.13298 4.70921 5.15516 4.68704 5.18101 4.66983C5.20686 4.65263 5.23587 4.64073 5.26636 4.63483C5.29685 4.62894 5.32821 4.62916 5.35861 4.63548C5.38901 4.64181 5.41785 4.65411 5.44346 4.67168C5.46907 4.68925 5.49092 4.71173 5.50777 4.73782L7.51242 7.74926C7.54686 7.80099 7.55935 7.86428 7.54713 7.92522C7.53491 7.98615 7.49899 8.03974 7.44727 8.07419H7.44717Z" />
<path d="M12.869 18.4964L13.6548 14.8329C12.969 14.7623 12.3297 15.0588 12.1783 15.5379C12.2022 15.756 12.2143 15.9753 12.2144 16.1947C12.2151 16.8276 12.1151 17.4565 11.918 18.0579C12.1795 18.4046 12.6113 18.4708 12.869 18.4964Z" />
<path d="M18.3784 6.8585L17.1426 6.28986L16.6689 7.31562L17.9048 7.88426L18.3784 6.8585Z" />
<path d="M4.48235 17.6256L5.91589 16.1947L2.19748 12.4828C1.26292 13.4925 0.745406 14.8187 0.749042 16.1945C0.749042 16.3241 0.753558 16.453 0.762589 16.5811C1.42123 16.4613 2.0985 16.4931 2.74301 16.6741C3.38752 16.855 3.98235 17.1804 4.48235 17.6256Z" />
<path d="M0.814453 17.0484C0.980581 18.1175 1.46193 19.1126 2.19689 19.9064L4.14984 17.9569C3.70224 17.5575 3.16796 17.2675 2.58914 17.1099C2.01032 16.9522 1.40279 16.9312 0.814453 17.0484Z" />
<path d="M7.68873 14.425C7.23991 13.9308 6.91169 13.3394 6.72985 12.697C6.548 12.0547 6.51747 11.379 6.64066 10.7229C6.50984 10.7135 6.37883 10.7088 6.24761 10.7088C4.87105 10.7064 3.54388 11.2215 2.5293 12.1519L6.24761 15.8635L7.68873 14.425Z" />
<path d="M9.96542 12.1519C9.16945 11.4212 8.17494 10.9426 7.10731 10.7763C6.99237 11.3622 7.01501 11.9667 7.17344 12.5424C7.33188 13.118 7.62179 13.649 8.02034 14.0936L9.96542 12.1519Z" />
<path d="M11.6793 15.3349C11.5123 14.2681 11.0314 13.2752 10.2979 12.4828L8.35254 14.4245C8.79909 14.8228 9.33184 15.1123 9.90903 15.2703C10.4862 15.4283 11.0921 15.4504 11.6793 15.3349Z" />
<path d="M15.3266 9.10508L15.3767 8.99661L15.2803 8.95227C15.2947 9.00365 15.3102 9.05458 15.3266 9.10508Z" />
<path d="M19.0742 10.8317C19.1238 10.8112 19.1733 10.7894 19.2227 10.7665L19.1251 10.7216L19.0742 10.8317Z" />
<path d="M15.1662 7.14026C15.111 7.55242 15.11 7.97002 15.1631 8.38245L15.5728 8.57093L16.0462 7.54517L15.1662 7.14026Z" />
<path d="M17.0078 10.9438C17.4791 11.1036 17.9854 11.1302 18.4708 11.0205L18.6993 10.5257L17.4634 9.95709L17.0078 10.9438Z" />
<path d="M15.8021 9.19257L15.5742 9.68616C15.8051 10.1268 16.1543 10.4943 16.5825 10.7475L17.038 9.76116L15.8021 9.19257Z" />
<path d="M19.3223 10.296L19.7313 10.4843C20.0794 10.2561 20.3967 9.98405 20.6754 9.67494L19.7959 9.27026L19.3223 10.296Z" />
<path d="M18.1338 8.50568L17.6602 9.53144L18.896 10.1001L19.3697 9.07432L18.1338 8.50568Z" />
<path d="M21.0124 1.71564C20.5576 1.50753 20.0629 1.4009 19.5628 1.40317C17.6995 1.40317 15.7134 2.80553 14.6792 5.04536C13.9348 6.65734 13.8124 8.40681 14.3431 9.84536C14.7178 10.8606 15.3794 11.6105 16.2565 12.014C18.4377 13.0177 21.2786 11.5238 22.5897 8.68436C23.334 7.07233 23.4565 5.32291 22.9258 3.88436C22.5511 2.86909 21.8895 2.11914 21.0124 1.71564ZM22.0459 8.4347C21.16 10.353 19.4548 11.553 17.8514 11.553C17.418 11.555 16.9893 11.4625 16.5951 11.2821C15.832 10.931 15.2576 10.2819 14.934 9.40492C14.4799 8.17417 14.5851 6.67609 15.223 5.29478C16.3476 2.85939 18.793 1.582 20.6738 2.44736C21.4369 2.79845 22.0113 3.44758 22.3349 4.32452C22.7891 5.55527 22.6837 7.05334 22.0459 8.43466V8.4347Z" />
<path d="M21.8064 4.91614L21.333 5.94195L22.1318 6.30945C22.1656 5.88093 22.1386 5.44977 22.0515 5.02883L21.8064 4.91614Z" />
<path d="M20.6621 7.39332L21.7637 7.90008C21.9031 7.544 22.0061 7.17471 22.0712 6.79787L21.1358 6.36755L20.6621 7.39332Z" />
<path d="M19.9922 8.84468L20.9847 9.30129C21.2136 8.99789 21.412 8.67257 21.5768 8.33009L20.4659 7.81915L19.9922 8.84468Z" />
<path d="M19.0484 5.40714L17.8125 4.8385L17.3389 5.86427L18.5747 6.43291L19.0484 5.40714Z" />
<path d="M21.3804 4.72027L20.1445 4.15167L19.6709 5.17744L20.9068 5.74603L21.3804 4.72027Z" />
<path d="M15.999 8.76698L17.2349 9.33557L17.7085 8.3098L16.4726 7.74121L15.999 8.76698Z" />
<path d="M16.7163 6.09377L15.6067 5.58325C15.4528 5.93056 15.3333 6.29216 15.25 6.66283L16.2427 7.11953L16.7163 6.09377Z" />
<path d="M20.7105 6.17162L19.4746 5.60303L19.001 6.62879L20.2368 7.19739L20.7105 6.17162Z" />
<path d="M20.2593 2.78567C19.986 2.69055 19.6985 2.64234 19.4091 2.64307C19.203 2.64384 18.9974 2.66619 18.7959 2.70978L18.6797 2.96154L19.9155 3.53014L20.2593 2.78567Z" />
<path d="M20.0396 7.62298L18.8037 7.05438L18.3301 8.08015L19.5659 8.64874L20.0396 7.62298Z" />
<path d="M17.3872 4.64258L16.4554 4.21405C16.2099 4.50763 15.9948 4.82537 15.8135 5.16238L16.9136 5.66863L17.3872 4.64258Z" />
<path d="M18.0573 3.19123L17.8146 3.07971C17.4386 3.2881 17.0934 3.54788 16.7891 3.85156L17.5836 4.21718L18.0573 3.19123Z" />
<path d="M19.2446 4.98151L19.7183 3.95574L18.4824 3.38715L18.0088 4.41291L19.2446 4.98151Z" />
</svg>
