<svg width="24" height="24" viewBox="0 0 24 24" fill="none" xmlns="http://www.w3.org/2000/svg">
<g clip-path="url(#clip0_481_12202)">
<path d="M21.8906 1.40625H21.1406V3.51562C21.1406 3.90375 20.8256 4.21875 20.4375 4.21875C20.0494 4.21875 19.7344 3.90375 19.7344 3.51562V1.40625H16.9219V3.51562C16.9219 3.90375 16.6069 4.21875 16.2188 4.21875C15.8306 4.21875 15.5156 3.90375 15.5156 3.51562V1.40625H12.7031V3.51562C12.7031 3.90375 12.3881 4.21875 12 4.21875C11.6119 4.21875 11.2969 3.90375 11.2969 3.51562V1.40625H8.48438V3.51562C8.48438 3.90375 8.16938 4.21875 7.78125 4.21875C7.39313 4.21875 7.07812 3.90375 7.07812 3.51562V1.40625H4.26562V3.51562C4.26562 3.90375 3.95062 4.21875 3.5625 4.21875C3.17438 4.21875 2.85938 3.90375 2.85938 3.51562V1.40625H2.10938C0.946406 1.40625 0 2.35266 0 3.51562V7.03125H24V3.51562C24 2.35266 23.0536 1.40625 21.8906 1.40625Z" />
<path d="M14.8125 17.5781C15.2002 17.5781 15.5156 17.2627 15.5156 16.875V14.0625C15.5156 13.6748 15.2002 13.3594 14.8125 13.3594C14.4248 13.3594 14.1094 13.6748 14.1094 14.0625V16.875C14.1094 17.2627 14.4248 17.5781 14.8125 17.5781Z" />
<path d="M0 21.8906C0 23.0536 0.946406 24 2.10938 24H21.8906C23.0536 24 24 23.0536 24 21.8906V8.4375H0V21.8906ZM12.7031 14.0625C12.7031 12.8994 13.6494 11.9531 14.8125 11.9531C15.9756 11.9531 16.9219 12.8994 16.9219 14.0625V16.875C16.9219 18.0381 15.9756 18.9844 14.8125 18.9844C13.6494 18.9844 12.7031 18.0381 12.7031 16.875V14.0625ZM9.1875 16.2188C8.79919 16.2188 8.48438 15.9039 8.48438 15.5156C8.48438 15.1273 8.79919 14.8125 9.1875 14.8125C9.5752 14.8125 9.89062 14.4971 9.89062 14.1094C9.89062 13.7217 9.5752 13.4062 9.1875 13.4062C8.7998 13.4062 8.48438 13.7217 8.48438 14.1094C8.48438 14.4977 8.16956 14.8125 7.78125 14.8125C7.39294 14.8125 7.07812 14.4977 7.07812 14.1094C7.07812 12.9463 8.02439 12 9.1875 12C10.3506 12 11.2969 12.9463 11.2969 14.1094C11.2969 14.6492 11.0928 15.1421 10.758 15.5156C11.0928 15.8891 11.2969 16.382 11.2969 16.9219C11.2969 18.085 10.3506 19.0312 9.1875 19.0312C8.02439 19.0312 7.07812 18.085 7.07812 16.9219C7.07812 16.5336 7.39294 16.2188 7.78125 16.2188C8.16956 16.2188 8.48438 16.5336 8.48438 16.9219C8.48438 17.3096 8.7998 17.625 9.1875 17.625C9.5752 17.625 9.89062 17.3096 9.89062 16.9219C9.89062 16.5342 9.5752 16.2188 9.1875 16.2188Z" />
<path d="M4.26562 0.703125C4.26562 0.315 3.95062 0 3.5625 0C3.17437 0 2.85938 0.315 2.85938 0.703125V1.40625H4.26562V0.703125Z" />
<path d="M8.48438 0.703125C8.48438 0.315 8.16937 0 7.78125 0C7.39312 0 7.07812 0.315 7.07812 0.703125V1.40625H8.48438V0.703125Z" />
<path d="M12.7031 0.703125C12.7031 0.315 12.3881 0 12 0C11.6119 0 11.2969 0.315 11.2969 0.703125V1.40625H12.7031V0.703125Z" />
<path d="M16.9219 0.703125C16.9219 0.315 16.6069 0 16.2188 0C15.8306 0 15.5156 0.315 15.5156 0.703125V1.40625H16.9219V0.703125Z" />
<path d="M21.1406 0.703125C21.1406 0.315 20.8256 0 20.4375 0C20.0494 0 19.7344 0.315 19.7344 0.703125V1.40625H21.1406V0.703125Z" />
</g>
<defs>
<clipPath id="clip0_481_12202">
<rect width="24" height="24" fill="white"/>
</clipPath>
</defs>
</svg>
