<svg width="16" height="24" viewBox="0 0 16 24" fill="none" xmlns="http://www.w3.org/2000/svg">
<path d="M8.67492 9.60276V1.155C8.67492 0.78222 8.3727 0.48 7.99992 0.48C7.62714 0.48 7.32492 0.78222 7.32492 1.155V9.60276C3.79445 9.94341 1.02492 12.9267 1.02492 16.545C1.02492 20.391 4.15391 23.52 7.99992 23.52C11.846 23.52 14.9749 20.391 14.9749 16.545C14.9749 12.9267 12.2054 9.94341 8.67492 9.60276ZM7.99992 22.17C4.8983 22.17 2.37492 19.6466 2.37492 16.545C2.37492 13.4434 4.8983 10.92 7.99992 10.92C11.1015 10.92 13.6249 13.4434 13.6249 16.545C13.6249 19.6466 11.1015 22.17 7.99992 22.17Z" />
<path fill-rule="evenodd" clip-rule="evenodd" d="M9.15492 9.17974C12.7194 9.73659 15.4549 12.8263 15.4549 16.545C15.4549 20.6561 12.1111 24 7.99992 24C3.88881 24 0.544922 20.6561 0.544922 16.545C0.544922 12.8263 3.28046 9.73659 6.84492 9.17974V1.155C6.84492 0.517123 7.36204 0 7.99992 0C8.6378 0 9.15492 0.517123 9.15492 1.155V9.17974ZM2.85492 16.545C2.85492 19.3815 5.16339 21.69 7.99992 21.69C10.8364 21.69 13.1449 19.3815 13.1449 16.545C13.1449 13.7085 10.8364 11.4 7.99992 11.4C5.16339 11.4 2.85492 13.7085 2.85492 16.545ZM8.67492 1.155V9.60276C12.2054 9.94341 14.9749 12.9267 14.9749 16.545C14.9749 20.391 11.846 23.52 7.99992 23.52C4.15391 23.52 1.02492 20.391 1.02492 16.545C1.02492 12.9267 3.79445 9.94341 7.32492 9.60276V1.155C7.32492 0.78222 7.62714 0.48 7.99992 0.48C8.3727 0.48 8.67492 0.78222 8.67492 1.155ZM2.37492 16.545C2.37492 19.6466 4.8983 22.17 7.99992 22.17C11.1015 22.17 13.6249 19.6466 13.6249 16.545C13.6249 13.4434 11.1015 10.92 7.99992 10.92C4.8983 10.92 2.37492 13.4434 2.37492 16.545Z" />
</svg>
