<svg width="24" height="24" viewBox="0 0 24 24" fill="none" xmlns="http://www.w3.org/2000/svg">
<g clip-path="url(#clip0_481_11862)">
<path d="M23.1524 19.5L20.8049 15.4425C19.5362 17.4051 17.6491 18.8884 15.4424 19.6575L17.3024 22.875C17.3685 22.9895 17.4636 23.0844 17.5782 23.1503C17.6928 23.2161 17.8227 23.2505 17.9549 23.25C18.0858 23.2492 18.2142 23.2142 18.3273 23.1484C18.4405 23.0826 18.5344 22.9884 18.5999 22.875L19.9049 20.625H22.4999C22.632 20.6255 22.762 20.5911 22.8766 20.5253C22.9912 20.4594 23.0863 20.3645 23.1524 20.25C23.2182 20.136 23.2529 20.0067 23.2529 19.875C23.2529 19.7434 23.2182 19.614 23.1524 19.5Z" />
<path d="M3.19505 15.4425L0.847551 19.5C0.781725 19.614 0.74707 19.7434 0.74707 19.875C0.74707 20.0067 0.781725 20.136 0.847551 20.25C0.91363 20.3645 1.00878 20.4594 1.12336 20.5253C1.23794 20.5911 1.36789 20.6255 1.50005 20.625H4.09505L5.40005 22.875C5.46549 22.9884 5.55946 23.0826 5.67261 23.1484C5.78577 23.2142 5.91417 23.2492 6.04505 23.25C6.17721 23.2505 6.30716 23.2161 6.42174 23.1503C6.53632 23.0844 6.63147 22.9895 6.69755 22.875L8.55755 19.6575C6.3508 18.8884 4.46369 17.4051 3.19505 15.4425Z" />
<path d="M12.7502 7.86L12.0002 6.36L11.2502 7.86C11.1959 7.96778 11.1165 8.06087 11.0185 8.13138C10.9206 8.20189 10.8071 8.24772 10.6877 8.265L9.0752 8.505L10.2452 9.66C10.332 9.74431 10.3971 9.84836 10.435 9.96329C10.4729 10.0782 10.4824 10.2006 10.4627 10.32L10.1852 11.94L11.6177 11.19C11.7273 11.1358 11.8479 11.1076 11.9702 11.1076C12.0925 11.1076 12.2131 11.1358 12.3227 11.19L13.7552 11.94L13.5002 10.32C13.4805 10.2006 13.49 10.0782 13.5279 9.96329C13.5658 9.84836 13.6309 9.74431 13.7177 9.66L14.8877 8.505L13.2827 8.25C13.1701 8.22991 13.0635 8.18433 12.9712 8.11673C12.8789 8.04913 12.8033 7.96131 12.7502 7.86Z" />
<path d="M21 9.75C21 7.96997 20.4722 6.22991 19.4832 4.74987C18.4943 3.26983 17.0887 2.11628 15.4442 1.43509C13.7996 0.7539 11.99 0.57567 10.2442 0.922937C8.49836 1.2702 6.89472 2.12737 5.63604 3.38604C4.37737 4.64472 3.5202 6.24836 3.17294 7.99419C2.82567 9.74002 3.0039 11.5496 3.68509 13.1942C4.36628 14.8387 5.51983 16.2443 6.99987 17.2332C8.47991 18.2222 10.22 18.75 12 18.75C14.387 18.75 16.6761 17.8018 18.364 16.114C20.0518 14.4261 21 12.137 21 9.75ZM17.025 8.52L15.0525 10.455L15.5175 13.185C15.5443 13.3256 15.5303 13.4709 15.4771 13.6038C15.4239 13.7367 15.3339 13.8517 15.2175 13.935C15.0909 14.0267 14.9388 14.0765 14.7825 14.0775C14.6594 14.0769 14.5383 14.046 14.43 13.9875L12 12.69L9.57 13.9725C9.45143 14.0305 9.31964 14.0562 9.18795 14.047C9.05626 14.0378 8.92934 13.994 8.82 13.92C8.70364 13.8366 8.61357 13.7217 8.56041 13.5888C8.50725 13.4559 8.49323 13.3106 8.52 13.17L8.985 10.44L6.975 8.52C6.8739 8.42266 6.80214 8.2989 6.76788 8.16279C6.73363 8.02669 6.73825 7.8837 6.78122 7.75009C6.8242 7.61648 6.9038 7.49761 7.01098 7.407C7.11816 7.31638 7.24861 7.25766 7.3875 7.2375L10.11 6.84L11.325 4.3575C11.3864 4.2307 11.4823 4.12376 11.6017 4.04893C11.7211 3.97411 11.8591 3.93442 12 3.93442C12.1409 3.93442 12.2789 3.97411 12.3983 4.04893C12.5177 4.12376 12.6136 4.2307 12.675 4.3575L13.89 6.84L16.6125 7.2375C16.7514 7.25766 16.8819 7.31638 16.989 7.407C17.0962 7.49761 17.1758 7.61648 17.2188 7.75009C17.2618 7.8837 17.2664 8.02669 17.2321 8.16279C17.1979 8.2989 17.1261 8.42266 17.025 8.52Z" />
</g>
<defs>
<clipPath id="clip0_481_11862">
<rect width="24" height="24" fill="white"/>
</clipPath>
</defs>
</svg>
