<svg width="24" height="24" viewBox="0 0 24 24" fill="none" xmlns="http://www.w3.org/2000/svg">
<path fill-rule="evenodd" clip-rule="evenodd" d="M7.75829 19.075C8.02249 18.9575 8.23778 18.7521 8.36751 18.4937C8.49723 18.2352 8.53335 17.9398 8.46971 17.6578C8.40608 17.3757 8.24662 17.1244 8.01852 16.9468C7.79041 16.7691 7.50775 16.676 7.2187 16.6833L4.47078 16.75C4.30661 16.7541 4.14485 16.7904 3.99473 16.857C3.84462 16.9236 3.7091 17.0191 3.59591 17.1381C3.48273 17.2571 3.39411 17.3972 3.33511 17.5505C3.2761 17.7037 3.24788 17.8671 3.25205 18.0313L3.31244 20.5312C3.32002 20.8367 3.43918 21.1287 3.64741 21.3523C3.85564 21.5759 4.13853 21.7155 4.44265 21.7447C4.74677 21.7739 5.05107 21.6908 5.29807 21.511C5.54508 21.3312 5.7177 21.0671 5.78332 20.7688C7.74878 22.1618 10.1252 22.8543 12.5314 22.735C14.9375 22.6157 17.2338 21.6916 19.0518 20.1109C20.8698 18.5302 22.1042 16.3847 22.5568 14.0185C23.0093 11.6523 22.6539 9.20265 21.5476 7.06264C20.4412 4.92262 18.648 3.2163 16.4558 2.21746C14.2635 1.21862 11.7993 0.98518 9.45844 1.55459C7.11761 2.124 5.03592 3.46324 3.54739 5.35744C2.05886 7.25163 1.24979 9.59095 1.25 12C1.25187 12.3303 1.38439 12.6465 1.6186 12.8793C1.85281 13.1122 2.16968 13.243 2.49998 13.243C2.83028 13.243 3.14715 13.1122 3.38136 12.8793C3.61557 12.6465 3.74809 12.3303 3.74996 12C3.74942 10.1774 4.35227 8.40592 5.46442 6.96197C6.57657 5.51801 8.13545 4.48285 9.89779 4.01804C11.6601 3.55322 13.5268 3.6849 15.2064 4.39252C16.886 5.10014 18.2841 6.3439 19.1826 7.92968C20.081 9.51547 20.4292 11.3541 20.1728 13.1585C19.9164 14.963 19.0698 16.6319 17.7652 17.9046C16.4606 19.1774 14.7713 19.9824 12.9611 20.1942C11.1508 20.4059 9.32138 20.0124 7.75829 19.075V19.075ZM10.75 7.24997V12C10.7502 12.3315 10.882 12.6492 11.1164 12.8836C11.3507 13.1179 11.6685 13.2497 11.9999 13.2499H17.0291C17.3606 13.2499 17.6786 13.1182 17.913 12.8838C18.1474 12.6494 18.2791 12.3315 18.2791 12C18.2791 11.6685 18.1474 11.3505 17.913 11.1161C17.6786 10.8817 17.3606 10.75 17.0291 10.75H13.25V7.24997C13.2481 6.91968 13.1156 6.60356 12.8814 6.37067C12.6472 6.13777 12.3303 6.00705 12 6.00705C11.6697 6.00705 11.3528 6.13777 11.1186 6.37067C10.8844 6.60356 10.7519 6.91968 10.75 7.24997H10.75Z" />
</svg>
