<svg width="24" height="24" viewBox="0 0 24 24" fill="none" xmlns="http://www.w3.org/2000/svg">
<g clip-path="url(#clip0_481_11893)">
<path d="M11 13C10.4477 13.0001 10.0001 13.4477 10 14V23C10 23.5523 10.4477 24 11 24C11.5523 24 12 23.5523 12 23V22.5C12 22.3674 12.0527 22.2402 12.1464 22.1464C12.2402 22.0527 12.3674 22 12.5 22H21.5C21.6326 22 21.7598 22.0527 21.8536 22.1464C21.9473 22.2402 22 22.3674 22 22.5V23C22 23.5523 22.4477 24 23 24C23.5523 24 24 23.5523 24 23V14C23.9999 13.4477 23.5523 13.0001 23 13H11ZM12.5 15H21.5C21.5657 15 21.6307 15.0129 21.6913 15.0381C21.752 15.0632 21.8071 15.1 21.8536 15.1464C21.9 15.1929 21.9368 15.248 21.9619 15.3087C21.9871 15.3693 22 15.4343 22 15.5V17.5C22 17.5657 21.9871 17.6307 21.9619 17.6913C21.9368 17.752 21.9 17.8071 21.8536 17.8536C21.8071 17.9 21.752 17.9368 21.6913 17.9619C21.6307 17.9871 21.5657 18 21.5 18H12.5C12.4343 18 12.3693 17.9871 12.3087 17.9619C12.248 17.9368 12.1929 17.9 12.1464 17.8536C12.1 17.8071 12.0632 17.752 12.0381 17.6913C12.0129 17.6307 12 17.5657 12 17.5V15.5C12 15.4343 12.0129 15.3693 12.0381 15.3087C12.0632 15.248 12.1 15.1929 12.1464 15.1464C12.1929 15.1 12.248 15.0632 12.3087 15.0381C12.3693 15.0129 12.4343 15 12.5 15Z" />
<path d="M5 0C3.4901 0 2.19392 0.922005 1.33984 2.20312C0.485764 3.48424 0 5.163 0 7C0 8.837 0.485764 10.5158 1.33984 11.7969C1.89999 12.6371 2.65202 13.3186 3.52858 13.6899C3.78269 13.7975 4 14.0793 4 14.3555V15.6309C4 15.6793 3.98685 15.7268 3.96196 15.7684C3.93707 15.81 3.90137 15.844 3.85866 15.8669C3.81595 15.8897 3.76783 15.9006 3.71945 15.8982C3.67106 15.8959 3.62421 15.8805 3.58389 15.8536L2.55469 15.168C2.03137 14.8193 1.45234 15.0323 1.16797 15.4453C0.854762 15.9002 0.985808 16.5257 1.44531 16.832L3.58397 18.2578C3.71195 18.3431 3.81688 18.4587 3.88945 18.5943C3.96203 18.7299 4 18.8814 4 19.0352V23C4 23.5523 4.44772 24 5 24C5.55228 24 6 23.5523 6 23V14.3555C6 14.0793 6.21731 13.7975 6.47142 13.6899C7.34798 13.3186 8.10001 12.6371 8.66016 11.7969C9.51424 10.5158 10 8.837 10 7C10 5.163 9.51424 3.48424 8.66016 2.20312C7.80608 0.922005 6.5099 1.1e-07 5 1.1e-07V0Z" />
</g>
<defs>
<clipPath id="clip0_481_11893">
<rect width="24" height="24" fill="white"/>
</clipPath>
</defs>
</svg>
