<svg width="24" height="24" viewBox="0 0 24 24" fill="none" xmlns="http://www.w3.org/2000/svg">
<g clip-path="url(#clip0_758_21171)">
<path d="M9.0845 2.17277C9.1925 1.08727 8.40009 0.11975 7.31459 0.0117461C6.22909 -0.096258 5.26157 0.696155 5.15357 1.78165C5.04556 2.86715 5.83798 3.83467 6.92347 3.94267C8.00897 4.05068 8.97649 3.25827 9.0845 2.17277Z" />
<path d="M16.2688 5.23148C17.274 5.06852 17.9569 4.12147 17.7939 3.1162C17.6309 2.11092 16.6839 1.42809 15.6786 1.59105C14.6733 1.75402 13.9905 2.70106 14.1535 3.70634C14.3164 4.71161 15.2635 5.39444 16.2688 5.23148Z" />
<path d="M21.6826 13.528C21.6681 13.4881 20.2151 9.5129 19.5753 7.65109C19.1625 6.44975 18.4703 5.84064 17.5179 5.84064C16.8445 5.84064 15.1097 5.84064 14.4348 5.84064C13.4824 5.84064 12.7902 6.44975 12.3774 7.65109C12.2621 7.98647 12.1205 8.39059 11.9656 8.8278V6.8293C11.9656 6.8277 11.9656 6.8261 11.9656 6.8245C11.9594 5.58707 10.9318 4.58028 9.67487 4.58028C8.59641 4.58028 5.65971 4.58028 4.55804 4.58028C3.29913 4.58028 2.26987 5.58703 2.26367 6.8245V6.8293V13.8315C2.26367 14.3579 2.6904 14.7846 3.21676 14.7846C3.74311 14.7846 4.16984 14.3579 4.16984 13.8315V6.83277C4.17167 6.65139 4.3563 6.48654 4.55804 6.48654H4.58116V13.7143H4.58205V22.8563C4.58205 23.4879 5.09412 24 5.72578 24C6.35744 24 6.86951 23.4879 6.86951 22.8563V13.7143H7.3633V22.8563C7.3633 23.4879 7.87537 24 8.50703 24C9.13869 24 9.65076 23.4879 9.65076 22.8563V13.7143C9.65076 13.7069 9.65034 13.6997 9.6502 13.6924L9.64136 6.48654H9.67477C9.87449 6.48654 10.0573 6.6512 10.0593 6.83245V13.8315C10.0593 14.3579 10.486 14.7846 11.0123 14.7846C11.4379 14.7846 11.8154 14.4835 11.9413 14.1391C11.9517 14.1106 12.6901 12.0904 13.3485 10.2489L12.4321 15.9125C12.3797 16.2154 12.6141 16.4919 12.9192 16.4919H13.6101V22.9029C13.6101 23.4926 14.0882 23.9707 14.6779 23.9707C15.2676 23.9707 15.7456 23.4926 15.7456 22.9029V16.4919H16.2067V22.9029C16.2067 23.4926 16.6848 23.9707 17.2745 23.9707C17.8641 23.9707 18.3422 23.4926 18.3422 22.9029V16.4919H19.0331C19.3392 16.4919 19.5727 16.2158 19.5202 15.9125L18.506 9.97487C19.1868 11.884 20.0002 14.1092 20.0111 14.1391C20.1804 14.6022 20.6924 14.8376 21.1523 14.6693C21.614 14.5005 21.8514 13.9895 21.6826 13.528Z" />
</g>
<defs>
<clipPath id="clip0_758_21171">
<rect width="24" height="24" fill="white"/>
</clipPath>
</defs>
</svg>
