<svg width="24" height="24" viewBox="0 0 24 24" fill="none" xmlns="http://www.w3.org/2000/svg">
<g clip-path="url(#clip0_469_7251)">
<path d="M12.9769 1.93865C13.2483 1.57888 13.2047 0.815778 13.166 0.142624C13.1646 0.113608 13.1629 0.0852305 13.1613 0.0564112C12.7808 0.0200802 12.3957 0 12.0059 0C10.5121 0 9.08283 0.275183 7.76367 0.774046C8.70469 1.22627 10.1613 2.00464 11.7804 3.15471C12.3328 2.67931 12.7495 2.24044 12.9769 1.93865Z" />
<path d="M19.0569 8.78591C18.4654 8.85273 17.9666 8.94979 17.54 9.08593C19.5793 12.6465 20.3744 17.1448 20.569 20.4036C22.5893 18.3451 23.8723 15.5623 23.9936 12.4799C22.6016 10.7688 20.7574 8.59301 19.0569 8.78591Z" />
<path d="M6.93339 5.71248C8.36626 5.41432 9.71242 4.69315 10.7858 3.93192C8.54659 2.38972 6.67898 1.58936 6.30747 1.43701C3.9844 2.69284 2.12543 4.69374 1.04395 7.11815C2.44966 6.55806 3.97207 6.27311 5.46739 5.99547C5.95113 5.90562 6.45117 5.81278 6.93339 5.71248Z" />
<path d="M15.2275 6.0614C15.3554 6.18993 15.483 6.32067 15.6097 6.45387C16.0771 6.94458 16.5012 7.4813 16.8902 8.04914C17.4566 7.83528 18.1234 7.68362 18.9216 7.59339C20.8023 7.38065 22.4746 8.87047 23.91 10.5107C23.6022 8.0242 22.5358 5.77379 20.9468 3.99902C20.0795 4.10355 19.1125 4.28064 18.127 4.57472C17.4805 4.76782 16.4509 5.29246 15.2275 6.0614Z" />
<path d="M13.6493 12.2586C14.1415 10.5915 14.7116 9.38983 15.8161 8.60979C15.4846 8.1339 15.1279 7.68728 14.7415 7.28155C14.5627 7.09381 14.3819 6.9125 14.2004 6.73438C9.76884 9.75078 3.69847 15.2918 3.14648 20.0927C4.98905 22.1087 7.51072 23.4912 10.3494 23.8834C11.3831 21.8256 12.3559 17.6422 12.9341 15.1541C13.212 13.9591 13.4518 12.9272 13.6493 12.2586Z" />
<path d="M8.6244 9.61515C10.1695 8.19132 11.8013 6.91454 13.2938 5.88838C12.7963 5.44824 12.2973 5.04251 11.8074 4.67041C10.5678 5.60225 8.94475 6.52005 7.17809 6.88748C6.68335 6.99044 6.17673 7.08455 5.68694 7.17548C3.7998 7.52593 1.98825 7.86533 0.464808 8.71532C0.168121 9.75964 0.00585938 10.8607 0.00585938 12.0001C0.00585938 14.549 0.803079 16.9107 2.15818 18.8541C3.03606 15.3782 6.04721 11.99 8.6244 9.61515Z" />
<path d="M14.3272 5.20308C15.7548 4.29294 16.9856 3.66362 17.7842 3.42526C18.5013 3.21111 19.2047 3.05513 19.8709 2.94137C18.3315 1.60376 16.4499 0.650411 14.3728 0.234863C14.4188 1.07293 14.4389 1.99304 13.9348 2.66153C13.6952 2.97898 13.29 3.41436 12.7627 3.88672C13.2791 4.28866 13.8039 4.72699 14.3272 5.20308Z" />
<path d="M14.8003 12.5983C14.6129 13.233 14.3766 14.2491 14.1031 15.4256C13.2958 18.8994 12.5233 22.0077 11.6211 23.99C11.7492 23.9941 11.8772 23.9998 12.0063 23.9998C14.803 23.9998 17.3739 23.0405 19.4141 21.4367C19.3336 18.0264 18.516 13.2028 16.4567 9.62207C15.658 10.2157 15.2281 11.1495 14.8003 12.5983Z" />
</g>
<defs>
<clipPath id="clip0_469_7251">
<rect width="24" height="24" fill="white"/>
</clipPath>
</defs>
</svg>
