<svg width="24" height="24" viewBox="0 0 24 24" fill="none" xmlns="http://www.w3.org/2000/svg">
<g clip-path="url(#clip0_472_6828)">
<path d="M11.5607 8.75123C11.3699 8.49525 10.5873 7.97058 9.32843 7.57097C8.02493 7.15715 7.13168 7.15336 6.84082 7.24851C7.03155 7.5045 7.81423 8.02917 9.07305 8.42878C10.3766 8.84259 11.2699 8.84639 11.5607 8.75123Z" />
<path d="M17.1603 7.2485C16.8695 7.15335 15.9763 7.15719 14.6726 7.57096C13.4138 7.97057 12.6312 8.49519 12.4404 8.75122C12.7314 8.84642 13.6245 8.84258 14.9281 8.42877C16.1869 8.02916 16.9695 7.50449 17.1603 7.2485Z" />
<path d="M15.6006 11.0338C15.6006 11.1011 15.6114 11.1677 15.6327 11.2316L15.7605 11.6151C16.6822 11.323 17.5514 10.8698 18.3225 10.2715L18.0048 9.44531L15.9462 10.4745C15.733 10.5812 15.6006 10.7955 15.6006 11.0338Z" />
<path d="M12.9147 9.60199C12.8362 9.60199 12.7604 9.59913 12.6865 9.59421L13.4876 11.9974C13.9933 11.9844 14.4945 11.9242 14.9851 11.8197L14.8734 11.4845C14.8248 11.3388 14.8002 11.1872 14.8002 11.0338C14.8002 10.4905 15.1021 10.002 15.588 9.75902L17.7158 8.6951L17.4714 8.05957C16.7129 8.6854 15.3857 9.12307 15.1699 9.19155C14.4547 9.41866 13.6043 9.60199 12.9147 9.60199Z" />
<path d="M9.20078 11.0337C9.20078 11.1872 9.17617 11.3388 9.1277 11.4844L9.01591 11.8197C9.5065 11.9241 10.0077 11.9843 10.5134 11.9974L11.3145 9.59416C11.2407 9.59913 11.1648 9.60194 11.0864 9.60194C10.3967 9.60194 9.54639 9.41862 8.83113 9.19155C8.61531 9.12307 7.28819 8.6854 6.52961 8.05957L6.28516 8.6951L8.41295 9.75902C8.89886 10.002 9.20078 10.4905 9.20078 11.0337Z" />
<path d="M23.1979 16.3635L21.8092 13.1892C21.2767 11.972 20.2004 11.1001 18.9085 10.8276C17.3381 12.0807 15.3831 12.7771 13.3726 12.7987C12.7447 13.4823 12.4004 14.363 12.4004 15.2969V18.3998C12.4004 19.2821 13.1181 19.9998 14.0004 19.9998C14.8826 19.9998 15.6004 19.2821 15.6004 18.3998V17.272C15.6004 16.9014 15.688 16.5303 15.8537 16.1987L16.0426 15.8209L16.7581 16.1787L16.5693 16.5564C16.4588 16.7774 16.4004 17.0249 16.4004 17.272V17.8256C16.825 18.1967 17.3626 18.3998 17.9317 18.3998H18.0004V19.1998H17.9317C17.3743 19.1998 16.8395 19.0544 16.3695 18.7828C16.1855 19.9248 15.1934 20.7998 14.0004 20.7998C13.7667 20.7998 13.541 20.7656 13.3273 20.7031C13.2444 20.9559 13.2004 21.2216 13.2004 21.4874C13.2004 22.8727 14.3275 23.9998 15.7129 23.9998C17.1514 23.9998 18.6006 23.6783 19.9042 23.07L20.8299 22.638C22.5129 21.8526 23.6004 20.1449 23.6004 18.2877C23.6004 17.6213 23.465 16.9739 23.1979 16.3635Z" />
<path d="M5.0923 10.8276C3.80033 11.1001 2.72408 11.972 2.19158 13.1892L0.802906 16.3634C0.535813 16.9739 0.400391 17.6213 0.400391 18.2877C0.400391 20.1449 1.48789 21.8525 3.17089 22.6379L4.09658 23.0699C5.40017 23.6782 6.8495 23.9998 8.28795 23.9998C9.6733 23.9998 10.8004 22.8727 10.8004 21.4873C10.8004 21.2216 10.7564 20.9558 10.6735 20.703C10.4598 20.7656 10.2341 20.7998 10.0004 20.7998C8.80742 20.7998 7.81536 19.9247 7.63138 18.7828C7.16131 19.0544 6.62652 19.1998 6.06913 19.1998H6.00041V18.3998H6.06908C6.63823 18.3998 7.17584 18.1966 7.60044 17.8256V17.2719C7.60044 17.0249 7.54203 16.7774 7.4315 16.5563L7.24269 16.1786L7.95823 15.8209L8.14709 16.1986C8.31284 16.5302 8.40045 16.9013 8.40045 17.2719V18.3998C8.40045 19.282 9.1182 19.9998 10.0004 19.9998C10.8827 19.9998 11.6004 19.282 11.6004 18.3998V15.2968C11.6004 14.3629 11.2561 13.4823 10.6281 12.7987C8.61772 12.7771 6.66275 12.0807 5.0923 10.8276Z" />
<path d="M8.36863 11.2315C8.38987 11.1677 8.4007 11.1011 8.4007 11.0338C8.4007 10.7955 8.26827 10.5812 8.05504 10.4745L5.99648 9.44531L5.67871 10.2715C6.44985 10.8698 7.31905 11.3231 8.24071 11.6151L8.36863 11.2315Z" />
<path d="M12.1488 3.19055L14.0266 6.94631C14.1586 6.89836 14.2935 6.85228 14.4309 6.80859C14.554 6.76955 14.6763 6.73341 14.7977 6.69961L12.864 2.83219C12.8723 2.82352 12.8807 2.81498 12.8888 2.80612L14.1921 3.675C14.5111 3.88758 14.8822 3.99998 15.2655 3.99998C16.3326 3.99998 17.2007 3.13191 17.2007 2.0648V1.93514C17.2008 0.868078 16.3326 0 15.2655 0C14.8822 0 14.5111 0.112406 14.1921 0.324984L12.8888 1.19377C12.6692 0.952031 12.3524 0.799969 12.0007 0.799969C11.6491 0.799969 11.3323 0.952031 11.1126 1.19381L9.80941 0.324984C9.49042 0.112406 9.11927 0 8.73597 0C7.66886 0 6.80078 0.868078 6.80078 1.93519V2.06484C6.80078 3.13191 7.66886 3.99998 8.73597 3.99998C9.11927 3.99998 9.49042 3.88758 9.80941 3.675L11.1127 2.80622C11.1207 2.81512 11.1292 2.82366 11.1375 2.83228L9.20378 6.6997C9.32514 6.7335 9.44748 6.76964 9.57048 6.80869C9.70797 6.85233 9.84283 6.89845 9.97483 6.94641L11.8527 3.19064C11.9013 3.19659 11.9507 3.20006 12.0008 3.20006C12.0509 3.20002 12.1002 3.19655 12.1488 3.19055Z" />
</g>
<defs>
<clipPath id="clip0_472_6828">
<rect width="24" height="24" fill="white"/>
</clipPath>
</defs>
</svg>
