<svg width="24" height="24" viewBox="0 0 24 24" fill="none" xmlns="http://www.w3.org/2000/svg">
<path d="M23.6253 13.8373C23.6253 15.8998 21.9003 17.6248 19.8378 17.6248C17.7378 17.6248 16.0503 15.8998 16.0503 13.8373C16.0503 11.7373 17.7753 10.0498 19.8378 10.0498C21.9003 10.0123 23.6253 11.7373 23.6253 13.8373ZM13.2378 20.8498C5.62531 22.1248 3.52531 21.4873 2.02531 17.5498C1.72531 16.7248 0.60031 12.2998 1.57531 11.0998C1.68781 10.9498 1.91281 10.7623 2.43781 10.8373C3.11281 10.9498 3.75031 11.1373 4.42531 11.3248C5.77531 11.6998 7.27531 12.1498 9.60031 12.1498C14.2128 12.1498 16.6878 8.5873 17.4003 5.5123L18.5628 0.862305L20.2503 1.3123L18.2253 9.56231C16.5003 10.1998 15.2628 11.8873 15.2628 13.8373C15.2628 14.9998 15.7128 16.0873 16.4628 16.8748L16.1628 18.1123C16.1253 18.1873 15.5628 20.3998 13.2378 20.8498ZM20.4003 21.0748V23.2498H19.2378V21.1123C19.2378 19.3123 18.1128 18.2248 17.5128 17.7748C18.1878 18.1873 18.9753 18.4123 19.8378 18.4123C20.6628 18.4123 21.4503 18.1873 22.1628 17.7748C21.5253 18.1873 20.4003 19.3123 20.4003 21.0748Z" />
<path d="M13.0882 13.6121C13.2382 13.4621 13.2382 13.2371 13.0882 13.0871C12.9382 12.9371 12.7132 12.9371 12.5632 13.0871C12.5632 13.0871 11.3632 14.1371 7.7257 13.4621H7.6132C6.1132 13.1621 5.0257 12.9746 4.3507 13.4996C3.9382 13.7996 3.7507 14.3246 3.6757 15.0746C3.5257 17.1371 5.3632 19.7246 5.4382 19.8371C5.5132 19.9496 5.6257 19.9871 5.7382 19.9871C5.8132 19.9871 5.8882 19.9496 5.9632 19.9121C6.1507 19.7996 6.1882 19.5746 6.0382 19.3871C6.0382 19.3496 4.2757 16.9121 4.4257 15.1121C4.4632 14.5871 4.5757 14.2496 4.8007 14.0621C5.2132 13.7246 6.2257 13.9121 7.4632 14.1371H7.5757C11.7007 14.9621 13.0507 13.6871 13.0882 13.6121Z" />
<path d="M13.7258 18.5995L8.51328 19.237C8.32578 19.2745 8.17578 19.462 8.17578 19.6495C8.21328 19.837 8.36328 19.987 8.55078 19.987H8.58828L13.8008 19.3495C13.9883 19.312 14.1383 19.1245 14.1383 18.937C14.1383 18.712 13.9508 18.562 13.7258 18.5995Z" />
<path d="M13.7254 16.9873L8.55039 17.6248C8.36289 17.6623 8.21289 17.8498 8.21289 18.0373C8.25039 18.2248 8.40039 18.3748 8.58789 18.3748H8.62539L13.8379 17.7373C14.0254 17.6998 14.1754 17.5123 14.1754 17.3248C14.1379 17.1373 13.9504 16.9873 13.7254 16.9873Z" />
</svg>
