<svg width="24" height="24" viewBox="0 0 24 24" fill="none" xmlns="http://www.w3.org/2000/svg">
<path d="M2.5293 20.2375C3.32679 20.9695 4.32352 21.4486 5.39336 21.614C5.51008 21.0269 5.48849 20.4208 5.33032 19.8435C5.17214 19.2662 4.88172 18.7337 4.48206 18.2881L2.5293 20.2375Z" />
<path d="M12.6128 19.416C12.2983 19.416 11.9908 19.5093 11.7293 19.6841C11.4677 19.8588 11.2639 20.1072 11.1435 20.3978C11.0231 20.6885 10.9917 21.0082 11.053 21.3167C11.1144 21.6253 11.2659 21.9086 11.4883 22.1311C11.7107 22.3535 11.9941 22.5049 12.3026 22.5663C12.6111 22.6277 12.9309 22.5962 13.2215 22.4758C13.5121 22.3554 13.7605 22.1516 13.9353 21.89C14.11 21.6285 14.2033 21.321 14.2033 21.0064C14.2028 20.5848 14.0351 20.1805 13.7369 19.8823C13.4388 19.5842 13.0345 19.4165 12.6128 19.416Z" />
<path d="M11.732 15.802C11.4668 15.8511 11.1976 15.8759 10.9278 15.876C9.85319 15.8761 8.81684 15.4769 8.01999 14.7559L6.5791 16.1942L10.2975 19.906C11.232 18.8963 11.7495 17.5701 11.7459 16.1943C11.7459 16.0628 11.7413 15.932 11.732 15.802Z" />
<path d="M4.81445 17.9563C5.25966 18.4544 5.58534 19.0474 5.76669 19.6904C5.94804 20.3333 5.98027 21.0091 5.86094 21.6664C6.60643 21.7199 7.35498 21.6207 8.06082 21.3749C8.76666 21.1291 9.41494 20.742 9.96602 20.237L6.2477 16.5254L4.81445 17.9563Z" />
<path d="M16.1247 21.8195C16.1109 21.829 16.0991 21.8411 16.0899 21.8552C16.0808 21.8693 16.0745 21.885 16.0715 21.9015C16.0684 21.918 16.0686 21.9349 16.0722 21.9514C16.0757 21.9678 16.0824 21.9833 16.0919 21.9971C16.2122 22.1708 16.3965 22.2897 16.6043 22.3279C16.8121 22.3661 17.0266 22.3204 17.2008 22.2009L17.9405 21.6923C18.041 21.6228 18.1243 21.5311 18.1838 21.4243L17.3536 20.9746L16.1247 21.8195Z" />
<path d="M16.8903 20.7237L15.5488 19.9971L16.3206 21.1155L16.8903 20.7237Z" />
<path d="M20.6328 14.7623L15.2726 15.1085L15.0303 16.2381L20.3897 16.6316C20.5326 16.6417 20.675 16.6058 20.796 16.5292L22.1891 15.6412L21.2382 14.9371C21.0639 14.808 20.849 14.746 20.6328 14.7623Z" />
<path d="M21.6936 4.0419C21.4624 3.60151 21.1131 3.23428 20.6848 2.98145L20.3408 3.72629L21.5767 4.29488L21.6936 4.0419Z" />
<path d="M19.7612 19.6427L14.6945 17.8057L14.4648 18.8767L19.1734 21.4271C19.3769 21.5377 19.6151 21.5656 19.8387 21.505L21.0006 21.1923L20.0775 19.8841C19.9993 19.773 19.8889 19.6887 19.7612 19.6427Z" />
<path d="M20.4376 17.1016C20.4104 17.1016 20.3831 17.1006 20.356 17.0986L14.9317 16.7002L14.7939 17.3424L19.9212 19.2014C19.9711 19.2196 20.0196 19.2413 20.0665 19.2663L22.0006 18.4491L20.6076 17.0883C20.5514 17.097 20.4945 17.1014 20.4376 17.1016Z" />
<path d="M13.335 18.5732L14.1162 14.9177L14.8029 15.0644L14.0217 18.72L13.335 18.5732Z" />
<path d="M15.5501 14.6212L16.4815 12.604C16.3379 12.5577 16.1973 12.5029 16.0602 12.44C15.9232 12.3766 15.7899 12.3053 15.6611 12.2266L14.5918 14.5422L15.098 14.6504L15.5501 14.6212Z" />
<path d="M13.0065 14.3962L12.9439 14.3055C12.7055 13.9606 12.6033 13.5395 12.6571 13.1236C12.696 12.8224 12.622 12.5175 12.4493 12.2677L6.26602 3.30778C6.07217 3.02811 5.77546 2.83659 5.44077 2.7751C5.10609 2.71361 4.76068 2.78716 4.48008 2.97966C4.34135 3.07492 4.22277 3.19662 4.13114 3.33778C4.0395 3.47893 3.97661 3.63678 3.94606 3.80227C3.91552 3.96777 3.91791 4.13766 3.95311 4.30223C3.98831 4.4668 4.05563 4.62281 4.15121 4.76133L8.14496 10.5482C9.11334 10.8719 9.98243 11.4387 10.669 12.1944C11.3556 12.9501 11.8366 13.8694 12.0661 14.8643C12.3279 14.6209 12.6544 14.4583 13.0065 14.3962ZM4.96749 4.34925C4.94187 4.36631 4.91314 4.37815 4.88294 4.38411C4.85274 4.39006 4.82167 4.39001 4.79149 4.38396C4.76131 4.3779 4.73262 4.36596 4.70706 4.34882C4.6815 4.33168 4.65956 4.30967 4.6425 4.28405L4.58916 4.20356C4.5721 4.17794 4.56026 4.14921 4.5543 4.11902C4.54835 4.08882 4.5484 4.05774 4.55445 4.02757C4.56051 3.99739 4.57245 3.9687 4.58959 3.94314C4.60673 3.91757 4.62874 3.89564 4.65436 3.87858C4.67998 3.86152 4.70871 3.84968 4.73891 3.84372C4.76911 3.83777 4.80018 3.83782 4.83036 3.84387C4.86054 3.84993 4.88923 3.86187 4.91479 3.87901C4.94035 3.89615 4.96229 3.91816 4.97935 3.94378L5.03288 4.02427C5.04993 4.0499 5.06176 4.07864 5.0677 4.10884C5.07364 4.13905 5.07357 4.17012 5.0675 4.2003C5.06143 4.23048 5.04947 4.25917 5.03231 4.28472C5.01515 4.31028 4.99312 4.33221 4.96749 4.34925ZM7.44717 8.0745C7.42155 8.09156 7.39283 8.1034 7.36263 8.10936C7.33243 8.11531 7.30136 8.11526 7.27118 8.10921C7.241 8.10315 7.21231 8.09121 7.18675 8.07407C7.16118 8.05693 7.13925 8.03492 7.12219 8.0093L5.11758 4.99781C5.10002 4.9722 5.08772 4.94336 5.0814 4.91296C5.07508 4.88255 5.07486 4.8512 5.08076 4.82071C5.08666 4.79022 5.09856 4.76121 5.11577 4.73536C5.13298 4.70951 5.15516 4.68734 5.18101 4.67014C5.20686 4.65293 5.23587 4.64103 5.26636 4.63514C5.29685 4.62924 5.32821 4.62946 5.35861 4.63579C5.38901 4.64211 5.41785 4.65442 5.44346 4.67199C5.46907 4.68956 5.49092 4.71204 5.50777 4.73812L7.51242 7.74956C7.54686 7.80129 7.55935 7.86459 7.54713 7.92552C7.53491 7.98646 7.49899 8.04004 7.44727 8.0745H7.44717Z" />
<path d="M12.869 18.4961L13.6548 14.8326C12.969 14.762 12.3297 15.0585 12.1783 15.5376C12.2022 15.7557 12.2143 15.975 12.2144 16.1944C12.2151 16.8273 12.1151 17.4562 11.918 18.0576C12.1795 18.4043 12.6113 18.4705 12.869 18.4961Z" />
<path d="M18.3784 6.85868L17.1426 6.29004L16.6689 7.3158L17.9048 7.88445L18.3784 6.85868Z" />
<path d="M4.48235 17.6252L5.91589 16.1943L2.19748 12.4824C1.26292 13.4922 0.745406 14.8183 0.749042 16.1942C0.749042 16.3238 0.753558 16.4526 0.762589 16.5807C1.42123 16.4609 2.0985 16.4927 2.74301 16.6737C3.38752 16.8547 3.98235 17.1801 4.48235 17.6252Z" />
<path d="M0.814453 17.0483C0.980581 18.1173 1.46193 19.1124 2.19689 19.9063L4.14984 17.9568C3.70224 17.5574 3.16796 17.2674 2.58914 17.1098C2.01032 16.9521 1.40279 16.9311 0.814453 17.0483Z" />
<path d="M7.68873 14.4252C7.23991 13.931 6.91169 13.3396 6.72985 12.6972C6.548 12.0549 6.51747 11.3792 6.64066 10.7231C6.50984 10.7137 6.37883 10.709 6.24761 10.709C4.87105 10.7066 3.54388 11.2217 2.5293 12.152L6.24761 15.8636L7.68873 14.4252Z" />
<path d="M9.96542 12.152C9.16945 11.4213 8.17494 10.9426 7.10731 10.7764C6.99237 11.3622 7.01501 11.9668 7.17344 12.5424C7.33188 13.1181 7.62179 13.6491 8.02034 14.0936L9.96542 12.152Z" />
<path d="M11.6793 15.3346C11.5123 14.2677 11.0314 13.2748 10.2979 12.4824L8.35254 14.4241C8.79909 14.8225 9.33184 15.112 9.90903 15.2699C10.4862 15.4279 11.0921 15.45 11.6793 15.3346Z" />
<path d="M15.3266 9.10496L15.3767 8.99649L15.2803 8.95215C15.2947 9.00352 15.3102 9.05446 15.3266 9.10496Z" />
<path d="M19.0742 10.8318C19.1238 10.8113 19.1733 10.7896 19.2227 10.7666L19.1251 10.7217L19.0742 10.8318Z" />
<path d="M15.1662 7.14062C15.111 7.55279 15.11 7.97039 15.1631 8.38281L15.5728 8.5713L16.0462 7.54553L15.1662 7.14062Z" />
<path d="M17.0078 10.9437C17.4791 11.1036 17.9854 11.1301 18.4708 11.0204L18.6993 10.5256L17.4634 9.95703L17.0078 10.9437Z" />
<path d="M15.8021 9.19238L15.5742 9.68598C15.8051 10.1266 16.1543 10.4942 16.5825 10.7473L17.038 9.76098L15.8021 9.19238Z" />
<path d="M19.3223 10.2963L19.7313 10.4845C20.0794 10.2563 20.3967 9.98429 20.6754 9.67518L19.7959 9.27051L19.3223 10.2963Z" />
<path d="M18.1338 8.50586L17.6602 9.53162L18.896 10.1003L19.3697 9.0745L18.1338 8.50586Z" />
<path d="M21.0124 1.71582C20.5576 1.50771 20.0629 1.40109 19.5628 1.40336C17.6995 1.40336 15.7134 2.80572 14.6792 5.04554C13.9348 6.65753 13.8124 8.407 14.3431 9.84554C14.7178 10.8608 15.3794 11.6107 16.2565 12.0142C18.4377 13.0179 21.2786 11.5239 22.5897 8.68454C23.334 7.07251 23.4565 5.32309 22.9258 3.88454C22.5511 2.86928 21.8895 2.11932 21.0124 1.71582ZM22.0459 8.43489C21.16 10.3532 19.4548 11.5532 17.8514 11.5532C17.418 11.5551 16.9893 11.4627 16.5951 11.2823C15.832 10.9312 15.2576 10.282 14.934 9.40511C14.4799 8.17436 14.5851 6.67628 15.223 5.29497C16.3476 2.85957 18.793 1.58218 20.6738 2.44754C21.4369 2.79864 22.0113 3.44776 22.3349 4.3247C22.7891 5.55545 22.6837 7.05353 22.0459 8.43484V8.43489Z" />
<path d="M21.8064 4.91602L21.333 5.94183L22.1318 6.30933C22.1656 5.8808 22.1386 5.44965 22.0515 5.0287L21.8064 4.91602Z" />
<path d="M20.6621 7.39295L21.7637 7.89972C21.9031 7.54364 22.0061 7.17435 22.0712 6.7975L21.1358 6.36719L20.6621 7.39295Z" />
<path d="M19.9922 8.84487L20.9847 9.30148C21.2136 8.99807 21.412 8.67275 21.5768 8.33027L20.4659 7.81934L19.9922 8.84487Z" />
<path d="M19.0484 5.40751L17.8125 4.83887L17.3389 5.86463L18.5747 6.43327L19.0484 5.40751Z" />
<path d="M21.3804 4.71996L20.1445 4.15137L19.6709 5.17713L20.9068 5.74573L21.3804 4.71996Z" />
<path d="M15.999 8.76698L17.2349 9.33557L17.7085 8.3098L16.4726 7.74121L15.999 8.76698Z" />
<path d="M16.7163 6.09352L15.6067 5.58301C15.4528 5.93032 15.3333 6.29191 15.25 6.66259L16.2427 7.11929L16.7163 6.09352Z" />
<path d="M20.7105 6.17113L19.4746 5.60254L19.001 6.6283L20.2368 7.1969L20.7105 6.17113Z" />
<path d="M20.2593 2.78518C19.986 2.69006 19.6985 2.64185 19.4091 2.64259C19.203 2.64335 18.9974 2.66571 18.7959 2.70929L18.6797 2.96106L19.9155 3.52965L20.2593 2.78518Z" />
<path d="M20.0396 7.62328L18.8037 7.05469L18.3301 8.08045L19.5659 8.64905L20.0396 7.62328Z" />
<path d="M17.3872 4.6424L16.4554 4.21387C16.2099 4.50745 15.9948 4.82518 15.8135 5.1622L16.9136 5.66845L17.3872 4.6424Z" />
<path d="M18.0573 3.19159L17.8146 3.08008C17.4386 3.28847 17.0934 3.54825 16.7891 3.85192L17.5836 4.21755L18.0573 3.19159Z" />
<path d="M19.2446 4.98108L19.7183 3.95531L18.4824 3.38672L18.0088 4.41248L19.2446 4.98108Z" />
</svg>
