<svg width="24" height="24" viewBox="0 0 24 24" fill="none" xmlns="http://www.w3.org/2000/svg">
<g clip-path="url(#clip0_481_11862)">
<path d="M23.1534 19.4999L20.8059 15.4424C19.5372 17.405 17.6501 18.8883 15.4434 19.6574L17.3034 22.8749C17.3694 22.9893 17.4646 23.0843 17.5792 23.1501C17.6938 23.216 17.8237 23.2504 17.9559 23.2499C18.0867 23.2491 18.2151 23.2141 18.3283 23.1483C18.4415 23.0825 18.5354 22.9882 18.6009 22.8749L19.9059 20.6249H22.5009C22.633 20.6254 22.763 20.591 22.8776 20.5251C22.9921 20.4593 23.0873 20.3643 23.1534 20.2499C23.2192 20.1359 23.2538 20.0065 23.2538 19.8749C23.2538 19.7432 23.2192 19.6139 23.1534 19.4999V19.4999Z" />
<path d="M3.19407 15.4424L0.846575 19.4999C0.780748 19.6139 0.746094 19.7432 0.746094 19.8749C0.746094 20.0065 0.780748 20.1359 0.846575 20.2499C0.912653 20.3643 1.0078 20.4593 1.12238 20.5251C1.23697 20.591 1.36692 20.6254 1.49907 20.6249H4.09407L5.39907 22.8749C5.46452 22.9882 5.55848 23.0825 5.67164 23.1483C5.78479 23.2141 5.91319 23.2491 6.04407 23.2499C6.17623 23.2504 6.30618 23.216 6.42077 23.1501C6.53535 23.0843 6.6305 22.9893 6.69657 22.8749L8.55657 19.6574C6.34983 18.8883 4.46271 17.405 3.19407 15.4424V15.4424Z" />
<path d="M12.7492 7.85986L11.9992 6.35986L11.2492 7.85986C11.195 7.96764 11.1155 8.06074 11.0176 8.13124C10.9196 8.20175 10.8061 8.24759 10.6867 8.26486L9.07422 8.50486L10.2442 9.65986C10.331 9.74417 10.3961 9.84823 10.434 9.96315C10.4719 10.0781 10.4814 10.2005 10.4617 10.3199L10.1842 11.9399L11.6167 11.1899C11.7263 11.1356 11.8469 11.1074 11.9692 11.1074C12.0915 11.1074 12.2121 11.1356 12.3217 11.1899L13.7542 11.9399L13.4992 10.3199C13.4795 10.2005 13.489 10.0781 13.5269 9.96315C13.5648 9.84823 13.6299 9.74417 13.7167 9.65986L14.8867 8.50486L13.2817 8.24986C13.1691 8.22978 13.0626 8.18419 12.9703 8.11659C12.878 8.04899 12.8024 7.96118 12.7492 7.85986V7.85986Z" />
<path d="M21 9.75C21 7.96997 20.4722 6.22991 19.4832 4.74987C18.4943 3.26983 17.0887 2.11628 15.4442 1.43509C13.7996 0.7539 11.99 0.57567 10.2442 0.922937C8.49836 1.2702 6.89472 2.12737 5.63604 3.38604C4.37737 4.64472 3.5202 6.24836 3.17294 7.99419C2.82567 9.74002 3.0039 11.5496 3.68509 13.1942C4.36628 14.8387 5.51983 16.2443 6.99987 17.2332C8.47991 18.2222 10.22 18.75 12 18.75C14.387 18.75 16.6761 17.8018 18.364 16.114C20.0518 14.4261 21 12.137 21 9.75ZM17.025 8.52L15.0525 10.455L15.5175 13.185C15.5443 13.3256 15.5303 13.4709 15.4771 13.6038C15.4239 13.7367 15.3339 13.8517 15.2175 13.935C15.0909 14.0267 14.9388 14.0765 14.7825 14.0775C14.6594 14.0769 14.5383 14.046 14.43 13.9875L12 12.69L9.57 13.9725C9.45143 14.0305 9.31964 14.0562 9.18795 14.047C9.05626 14.0378 8.92934 13.994 8.82 13.92C8.70364 13.8366 8.61357 13.7217 8.56041 13.5888C8.50725 13.4559 8.49323 13.3106 8.52 13.17L8.985 10.44L6.975 8.52C6.8739 8.42266 6.80214 8.2989 6.76788 8.16279C6.73363 8.02669 6.73825 7.8837 6.78122 7.75009C6.8242 7.61648 6.9038 7.49761 7.01098 7.407C7.11815 7.31638 7.24861 7.25766 7.3875 7.2375L10.11 6.84L11.325 4.3575C11.3864 4.2307 11.4823 4.12376 11.6017 4.04893C11.7211 3.97411 11.8591 3.93442 12 3.93442C12.1409 3.93442 12.2789 3.97411 12.3983 4.04893C12.5177 4.12376 12.6136 4.2307 12.675 4.3575L13.89 6.84L16.6125 7.2375C16.7514 7.25766 16.8819 7.31638 16.989 7.407C17.0962 7.49761 17.1758 7.61648 17.2188 7.75009C17.2618 7.8837 17.2664 8.02669 17.2321 8.16279C17.1979 8.2989 17.1261 8.42266 17.025 8.52V8.52Z" />
</g>
<defs>
<clipPath id="clip0_481_11862">
<rect width="24" height="24" fill="white"/>
</clipPath>
</defs>
</svg>
