<svg width="24" height="24" viewBox="0 0 24 24" fill="none" xmlns="http://www.w3.org/2000/svg">
<path d="M3 21.7502H4.875C6.11251 21.7502 7.125 20.7377 7.125 19.5002V12.8252C7.125 11.5802 6.11251 10.5752 4.875 10.5752H3C1.76249 10.5752 0.75 11.5802 0.75 12.8252V19.5002C0.75 20.7377 1.76249 21.7502 3 21.7502Z" />
<path d="M12.9375 6.4126H11.0625C9.82499 6.4126 8.8125 7.42508 8.8125 8.6626V19.5001C8.8125 20.7376 9.82499 21.7501 11.0625 21.7501H12.9375C14.175 21.7501 15.1875 20.7376 15.1875 19.5001V8.6626C15.1875 7.42508 14.175 6.4126 12.9375 6.4126Z" />
<path d="M21 2.25H19.125C17.8875 2.25 16.875 3.26249 16.875 4.5V19.5C16.875 20.7375 17.8875 21.75 19.125 21.75H21C22.2375 21.75 23.25 20.7375 23.25 19.5V4.5C23.25 3.26249 22.2375 2.25 21 2.25Z" />
</svg>
