<svg width="24" height="24" viewBox="0 0 24 24" fill="none" xmlns="http://www.w3.org/2000/svg">
<g clip-path="url(#clip0_466_11314)">
<path fill-rule="evenodd" clip-rule="evenodd" d="M13.3549 17.0122V18.6766H14.4609C15.2091 18.6766 15.8159 19.2834 15.8159 20.0316C15.8159 20.7798 15.2091 21.3866 14.4609 21.3866H13.3549V22.645C13.3549 23.3932 12.7482 24 12 24C11.2517 24 10.645 23.3932 10.645 22.645V21.3866H9.53859C8.79061 21.3866 8.18363 20.7797 8.18363 20.0316C8.18363 19.2836 8.79061 18.6766 9.53859 18.6766H10.645V17.0122C6.53409 16.3568 3.44006 12.7844 3.44006 8.55989C3.44006 3.83962 7.27964 0 12 0C16.7202 0 20.56 3.83958 20.56 8.55989C20.56 12.7845 17.466 16.3568 13.3549 17.0122ZM6.14981 8.55989C6.14981 11.7851 8.77477 14.4098 11.9999 14.4098C15.2252 14.4098 17.85 11.7852 17.85 8.55989C17.85 5.33456 15.2251 2.70998 11.9999 2.70998C8.77481 2.70998 6.14981 5.33466 6.14981 8.55989Z" />
</g>
<defs>
<clipPath id="clip0_466_11314">
<rect width="24" height="24" fill="white"/>
</clipPath>
</defs>
</svg>
