<svg width="24" height="24" viewBox="0 0 24 24" fill="none" xmlns="http://www.w3.org/2000/svg">
<path d="M12.6748 9.60276V1.155C12.6748 0.78222 12.3726 0.48 11.9998 0.48C11.627 0.48 11.3248 0.78222 11.3248 1.155V9.60276C7.79432 9.94341 5.0248 12.9267 5.0248 16.545C5.0248 20.391 8.15378 23.52 11.9998 23.52C15.8459 23.52 18.9748 20.391 18.9748 16.545C18.9748 12.9267 16.2053 9.94341 12.6748 9.60276ZM11.9998 22.17C8.89817 22.17 6.3748 19.6466 6.3748 16.545C6.3748 13.4434 8.89817 10.92 11.9998 10.92C15.1014 10.92 17.6248 13.4434 17.6248 16.545C17.6248 19.6466 15.1014 22.17 11.9998 22.17Z" />
<path fill-rule="evenodd" clip-rule="evenodd" d="M13.1548 9.17974C16.7193 9.73659 19.4548 12.8263 19.4548 16.545C19.4548 20.6561 16.111 24 11.9998 24C7.88869 24 4.5448 20.6561 4.5448 16.545C4.5448 12.8263 7.28034 9.73659 10.8448 9.17974V1.155C10.8448 0.517123 11.3619 0 11.9998 0C12.6377 0 13.1548 0.517123 13.1548 1.155V9.17974ZM6.8548 16.545C6.8548 19.3815 9.16327 21.69 11.9998 21.69C14.8363 21.69 17.1448 19.3815 17.1448 16.545C17.1448 13.7085 14.8363 11.4 11.9998 11.4C9.16327 11.4 6.8548 13.7085 6.8548 16.545ZM12.6748 1.155V9.60276C16.2053 9.94341 18.9748 12.9267 18.9748 16.545C18.9748 20.391 15.8459 23.52 11.9998 23.52C8.15378 23.52 5.0248 20.391 5.0248 16.545C5.0248 12.9267 7.79432 9.94341 11.3248 9.60276V1.155C11.3248 0.78222 11.627 0.48 11.9998 0.48C12.3726 0.48 12.6748 0.78222 12.6748 1.155ZM6.3748 16.545C6.3748 19.6466 8.89817 22.17 11.9998 22.17C15.1014 22.17 17.6248 19.6466 17.6248 16.545C17.6248 13.4434 15.1014 10.92 11.9998 10.92C8.89817 10.92 6.3748 13.4434 6.3748 16.545Z" />
</svg>
