<svg width="267" height="52" viewBox="0 0 267 52" fill="none" xmlns="http://www.w3.org/2000/svg">
<path d="M82.2739 51.2707C80.8902 51.2707 79.8643 51.0033 79.1963 50.4684C78.5282 49.9336 78.1942 49.2043 78.1942 48.2805L78.6953 45.8738C78.3135 46.5058 77.6694 47.2595 76.7628 48.1346C75.8562 48.9612 74.6633 49.7148 73.1841 50.3955C71.7049 51.0276 69.9156 51.3436 67.8161 51.3436C65.5734 51.3436 63.4501 50.8817 61.446 49.9579C59.4896 48.9855 57.748 47.6727 56.2211 46.0196C54.7419 44.3179 53.549 42.3974 52.6424 40.2581C51.7836 38.0701 51.3541 35.7363 51.3541 33.2567C51.3541 30.8742 51.7836 28.6377 52.6424 26.547C53.549 24.4077 54.7658 22.5115 56.2927 20.8583C57.8196 19.2052 59.5612 17.9168 61.5176 16.993C63.5216 16.0206 65.6211 15.5344 67.8161 15.5344C69.7724 15.5344 71.4186 15.8018 72.7546 16.3366C74.1384 16.8714 75.3074 17.5521 76.2617 18.3787C77.2161 19.1566 78.0034 19.9832 78.6237 20.8583L78.1942 18.7433C78.1942 17.6737 78.5282 16.8714 79.1963 16.3366C79.8643 15.7532 80.914 15.4614 82.3455 15.4614C83.6816 15.4614 84.6359 15.6802 85.2085 16.1178C85.781 16.5068 86.1389 17.0659 86.2821 17.7952C86.4252 18.4759 86.4968 19.2539 86.4968 20.129V46.8219C86.4968 47.6484 86.4252 48.4021 86.2821 49.0827C86.1389 49.7634 85.7572 50.2983 85.1369 50.6872C84.5643 51.0762 83.61 51.2707 82.2739 51.2707ZM69.1044 42.8107C70.7267 42.8107 72.182 42.3974 73.4704 41.5708C74.7587 40.7443 75.7846 39.626 76.548 38.216C77.3592 36.7574 77.7648 35.1529 77.7648 33.4025C77.7648 31.5063 77.3592 29.8532 76.548 28.4432C75.7369 27.0332 74.6633 25.9392 73.3272 25.1613C72.0389 24.3347 70.5836 23.9215 68.9612 23.9215C67.1957 23.9215 65.6211 24.359 64.2374 25.2342C62.8536 26.0608 61.7562 27.2034 60.945 28.662C60.1815 30.072 59.7998 31.6765 59.7998 33.4755C59.7998 35.2258 60.2054 36.806 61.0166 38.216C61.8277 39.626 62.9252 40.7443 64.3089 41.5708C65.7404 42.3974 67.3389 42.8107 69.1044 42.8107Z" fill="#2F4858"/>
<path d="M97.8295 51.3436C96.5411 51.3436 95.5868 51.1491 94.9665 50.7602C94.3939 50.3712 94.0361 49.8364 93.8929 49.1557C93.7498 48.475 93.6782 47.7457 93.6782 46.9677V19.6914C93.6782 18.9135 93.7498 18.2085 93.8929 17.5764C94.0361 16.9444 94.4178 16.4338 95.0381 16.0449C95.6584 15.6559 96.6366 15.4614 97.9726 15.4614C99.3564 15.4614 100.358 15.7532 100.979 16.3366C101.647 16.9201 101.981 17.8439 101.981 19.108L101.337 21.1501C101.575 20.6152 101.981 20.0318 102.553 19.3997C103.126 18.7676 103.818 18.1356 104.629 17.5035C105.488 16.8714 106.442 16.3609 107.492 15.972C108.542 15.583 109.639 15.3885 110.784 15.3885C112.359 15.3885 113.79 15.6559 115.079 16.1907C116.415 16.7256 117.584 17.5035 118.586 18.5245C119.636 19.5456 120.542 20.7854 121.306 22.244C122.117 20.9799 123.023 19.8373 124.025 18.8163C125.027 17.7466 126.196 16.9201 127.533 16.3366C128.869 15.7045 130.372 15.3885 132.042 15.3885C134.809 15.3885 137.123 16.0935 138.984 17.5035C140.893 18.9135 142.324 20.9313 143.279 23.5568C144.281 26.1337 144.782 29.2211 144.782 32.8191V46.9677C144.782 47.7943 144.686 48.5479 144.495 49.2286C144.352 49.8607 143.971 50.3712 143.35 50.7602C142.778 51.1491 141.823 51.3436 140.487 51.3436C139.151 51.3436 138.173 51.1248 137.553 50.6872C136.933 50.2983 136.551 49.7878 136.408 49.1557C136.265 48.475 136.193 47.7214 136.193 46.8948V32.7461C136.193 30.9472 135.978 29.3913 135.549 28.0785C135.119 26.7658 134.475 25.7447 133.616 25.0154C132.805 24.2861 131.732 23.9215 130.395 23.9215C128.964 23.9215 127.723 24.2861 126.674 25.0154C125.672 25.6961 124.884 26.6928 124.312 28.0056C123.739 29.3184 123.453 30.9229 123.453 32.8191V47.0407C123.453 47.8672 123.334 48.6452 123.095 49.3745C122.856 50.0552 122.379 50.5657 121.663 50.906C120.995 51.295 120.017 51.4409 118.729 51.3436C117.536 51.295 116.653 51.0519 116.081 50.6143C115.556 50.1767 115.222 49.6419 115.079 49.0098C114.983 48.3291 114.936 47.6241 114.936 46.8948V32.7461C114.936 30.9472 114.721 29.3913 114.291 28.0785C113.862 26.7172 113.218 25.6961 112.359 25.0154C111.548 24.2861 110.45 23.9215 109.067 23.9215C107.587 23.9215 106.323 24.3104 105.273 25.0884C104.271 25.8663 103.508 26.9116 102.983 28.2244C102.458 29.5372 102.195 31.0444 102.195 32.7461V47.0407C102.195 47.8186 102.1 48.5479 101.909 49.2286C101.766 49.9093 101.384 50.4198 100.764 50.7602C100.191 51.1491 99.2132 51.3436 97.8295 51.3436Z" fill="#2F4858"/>
<path d="M169.006 51.8541C165.905 51.8541 163.185 51.3436 160.847 50.3226C158.556 49.3015 156.624 47.9158 155.049 46.1655C153.522 44.3665 152.353 42.3731 151.542 40.1851C150.779 37.9486 150.397 35.6391 150.397 33.2567C150.397 29.756 151.184 26.6442 152.759 23.9215C154.334 21.1987 156.505 19.0594 159.272 17.5035C162.087 15.9476 165.308 15.1697 168.935 15.1697C171.511 15.1697 173.778 15.583 175.734 16.4095C177.69 17.2361 179.313 18.3301 180.601 19.6914C181.937 21.0042 182.939 22.4628 183.607 24.0673C184.323 25.6718 184.681 27.2277 184.681 28.7349C184.681 31.3118 184.06 33.1837 182.82 34.3506C181.627 35.5175 180.124 36.101 178.311 36.101H159.415C159.463 37.7541 159.964 39.1884 160.918 40.4039C161.92 41.6194 163.161 42.5676 164.64 43.2482C166.167 43.8803 167.718 44.1964 169.292 44.1964C170.485 44.1964 171.535 44.1234 172.442 43.9776C173.396 43.8317 174.207 43.6615 174.875 43.467C175.543 43.2239 176.116 42.9808 176.593 42.7377C177.118 42.4946 177.595 42.2758 178.024 42.0813C178.454 41.8869 178.859 41.7653 179.241 41.7167C179.766 41.6681 180.291 41.7896 180.816 42.0813C181.341 42.3731 181.77 42.8836 182.104 43.6129C182.39 44.0991 182.581 44.561 182.677 44.9986C182.82 45.3876 182.891 45.7765 182.891 46.1655C182.891 47.1379 182.319 48.0617 181.174 48.9369C180.028 49.7634 178.406 50.4441 176.307 50.979C174.255 51.5624 171.821 51.8541 169.006 51.8541ZM159.415 30.9229H174.088C174.899 30.9229 175.519 30.8013 175.949 30.5582C176.378 30.2665 176.593 29.683 176.593 28.8079C176.593 27.6896 176.259 26.6928 175.591 25.8177C174.923 24.8939 174.016 24.1889 172.871 23.7027C171.726 23.1678 170.39 22.9004 168.863 22.9004C167.097 22.9004 165.499 23.2651 164.068 23.9944C162.636 24.6751 161.491 25.6232 160.632 26.8387C159.821 28.0542 159.415 29.4156 159.415 30.9229Z" fill="#2F4858"/>
<path fill-rule="evenodd" clip-rule="evenodd" d="M30.8288 1.36285C31.7476 1.6077 32.6492 1.90589 33.5296 2.25515C30.6912 1.12091 27.667 0.540846 24.6149 0.547036C24.3599 0.546914 24.1048 0.550839 23.8498 0.558806C24.1007 0.550977 24.3519 0.547062 24.6035 0.547062L24.6149 0.547036C26.7047 0.548031 28.793 0.820304 30.8288 1.36285Z" fill="#2F4858"/>
<path d="M10.9345 4.77213C6.8885 7.52687 3.73501 11.4423 1.87284 16.0232C0.0106602 20.6042 -0.47657 25.6449 0.472759 30.5081C1.42209 35.3712 3.76534 39.8383 7.20619 43.3444C10.647 46.8505 15.031 49.2382 19.8036 50.2055C24.5762 51.1728 29.5231 50.6764 34.0188 48.7789C38.5145 46.8814 42.357 43.6681 45.0605 39.5453C47.7639 35.4226 49.2069 30.5755 49.2069 25.6171C49.2087 24.457 48.7824 23.3386 48.0127 22.4838C47.243 21.629 46.1861 21.1002 45.0516 21.0024L38.7641 20.9745H31.8934C30.685 20.9745 29.5261 21.4637 28.6716 22.3343C27.8172 23.205 27.3372 24.3858 27.3372 25.6171C27.3372 26.8484 27.8172 28.0293 28.6716 28.9C29.5261 29.7706 30.685 30.2597 31.8934 30.2597H39.4111C38.5678 33.052 36.9806 35.551 34.8261 37.4786C32.6717 39.4062 30.0345 40.6867 27.2081 41.1776C24.3818 41.6685 21.4772 41.3505 18.8177 40.259C16.1582 39.1675 13.8482 37.3454 12.1447 34.9955C10.4413 32.6455 9.41128 29.86 9.16938 26.9489C8.92748 24.0379 9.48318 21.1155 10.7746 18.5072C12.066 15.8988 14.0425 13.7069 16.4841 12.1753C18.9256 10.6437 21.7363 9.83261 24.6035 9.83228C28.013 9.81771 31.3294 10.9649 34.0257 13.0914C34.1041 13.152 34.1842 13.2103 34.2659 13.2661C34.4911 13.449 34.7116 13.6385 34.927 13.8346L40.9891 6.91582C38.7902 4.91542 36.2623 3.33925 33.5296 2.25515C32.6492 1.90589 31.7476 1.6077 30.8288 1.36285C28.793 0.820304 26.7047 0.548031 24.6149 0.547036L24.6035 0.547062C24.3519 0.547062 24.1007 0.550977 23.8498 0.558806C23.7291 0.562577 23.6084 0.567253 23.4878 0.572835C23.3641 0.578554 23.2405 0.585214 23.117 0.592834C22.9524 0.602985 22.7879 0.614818 22.6237 0.628324C21.5035 0.720458 20.3936 0.890484 19.3015 1.13606C16.3299 1.80429 13.4904 3.03195 10.9345 4.77213Z" fill="#2F4858"/>
<path d="M184.725 51.7869C185.809 51.929 186.916 52 188.046 52C191.387 52 194.488 51.3436 197.351 50.0309C200.262 48.6695 202.838 46.7976 205.081 44.4151C207.324 41.9841 209.065 39.2127 210.306 36.101C211.546 32.9406 212.167 29.5858 212.167 26.0365C212.167 22.3899 211.523 19.0108 210.234 15.899C208.946 12.7387 207.18 9.96727 204.938 7.58486C202.695 5.20243 200.071 3.35484 197.065 2.04208C194.106 0.680692 190.885 0 187.402 0C184.062 0 180.937 0.680692 178.026 2.04208C175.115 3.40346 172.539 5.29967 170.296 7.73072C169.434 8.66672 168.641 9.66652 167.919 10.7301C168.255 10.7184 168.594 10.7126 168.934 10.7126C171.991 10.7126 174.876 11.2028 177.494 12.3087C177.658 12.3783 177.822 12.4497 177.984 12.5228C179.09 11.5808 180.297 10.81 181.605 10.2104C183.513 9.33521 185.541 8.89762 187.689 8.89762C189.883 8.89762 191.911 9.33521 193.772 10.2104C195.681 11.0856 197.351 12.3254 198.782 13.9299C200.262 15.4857 201.407 17.309 202.218 19.3997C203.077 21.4418 203.506 23.654 203.506 26.0365C203.506 28.4189 203.101 30.6554 202.29 32.7461C201.478 34.7882 200.333 36.5872 198.854 38.1431C197.423 39.6989 195.753 40.9144 193.844 41.7896C191.935 42.6648 189.883 43.1024 187.689 43.1024C187.386 43.1024 187.085 43.094 186.788 43.0774C186.866 43.2978 186.935 43.5239 186.995 43.7555C187.245 44.5193 187.383 45.3274 187.383 46.1655C187.383 48.6194 186.136 50.4818 184.725 51.7869Z" fill="#2F4858"/>
<path d="M174.856 16.0736C173.108 15.471 171.135 15.1697 168.935 15.1697C167.693 15.1697 166.498 15.2609 165.351 15.4434C165.256 15.6662 165.162 15.8909 165.071 16.1178C164.05 18.7203 163.449 21.4875 163.268 24.4197C163.524 24.2679 163.79 24.1261 164.068 23.9944C165.499 23.2651 167.097 22.9004 168.863 22.9004C170.068 22.9004 171.154 23.0671 172.122 23.4003C172.314 22.0207 172.66 20.6872 173.159 19.3997C173.623 18.2035 174.189 17.0947 174.856 16.0736Z" fill="#2F4858"/>
<path d="M172.582 30.9229C172.744 31.5155 172.936 32.0989 173.159 32.6732C173.667 33.9093 174.275 35.0519 174.983 36.101H165.053C164.383 34.4371 163.895 32.711 163.591 30.9229H172.582Z" fill="#2F4858"/>
<path d="M170.22 44.1807C170.316 44.2838 170.413 44.3862 170.511 44.4881C172.801 46.8219 175.426 48.6695 178.384 50.0309C178.514 50.0878 178.645 50.1435 178.776 50.1979C179.727 49.8241 180.527 49.4038 181.174 48.9369C182.319 48.0617 182.891 47.1379 182.891 46.1655C182.891 45.7765 182.82 45.3876 182.677 44.9986C182.581 44.561 182.39 44.0991 182.104 43.6129C181.77 42.8836 181.341 42.3731 180.816 42.0813C180.291 41.7896 179.766 41.6681 179.241 41.7167C178.859 41.7653 178.454 41.8869 178.024 42.0813C177.595 42.2758 177.118 42.4946 176.593 42.7377C176.116 42.9808 175.543 43.2239 174.875 43.467C174.207 43.6615 173.396 43.8317 172.442 43.9776C171.778 44.0844 171.037 44.1521 170.22 44.1807Z" fill="#2F4858"/>
<path d="M221.653 51.3436C220.365 51.3436 219.41 51.1248 218.79 50.6872C218.217 50.2983 217.86 49.7878 217.716 49.1557C217.573 48.475 217.502 47.7214 217.502 46.8948V19.6185C217.502 18.8406 217.573 18.1356 217.716 17.5035C217.86 16.8714 218.241 16.3852 218.862 16.0449C219.482 15.6559 220.436 15.4614 221.725 15.4614C222.87 15.4614 223.729 15.6073 224.301 15.899C224.874 16.1907 225.256 16.5554 225.446 16.993C225.637 17.4306 225.733 17.8682 225.733 18.3057C225.78 18.7433 225.828 19.0837 225.876 19.3268L225.59 21.6606C225.876 20.8827 226.353 20.129 227.021 19.3997C227.689 18.6704 228.5 18.014 229.455 17.4306C230.409 16.7985 231.435 16.3123 232.532 15.972C233.677 15.583 234.846 15.3885 236.039 15.3885C238.282 15.3885 240.286 15.8018 242.052 16.6283C243.817 17.4549 245.32 18.6218 246.561 20.129C247.849 21.6363 248.827 23.4353 249.495 25.5259C250.163 27.568 250.497 29.8775 250.497 32.4544V46.9677C250.497 47.7943 250.402 48.5479 250.211 49.2286C250.068 49.8607 249.71 50.3712 249.137 50.7602C248.565 51.1491 247.587 51.3436 246.203 51.3436C244.867 51.3436 243.889 51.1248 243.268 50.6872C242.648 50.2983 242.266 49.7878 242.123 49.1557C241.98 48.475 241.908 47.7214 241.908 46.8948V32.3815C241.908 30.6311 241.598 29.1239 240.978 27.8598C240.405 26.5956 239.546 25.6232 238.401 24.9425C237.304 24.2618 235.896 23.9215 234.178 23.9215C232.508 23.9215 231.053 24.2861 229.812 25.0154C228.572 25.6961 227.618 26.6685 226.949 27.9327C226.281 29.1968 225.947 30.6798 225.947 32.3815V46.9677C225.947 47.7943 225.876 48.5479 225.733 49.2286C225.59 49.8607 225.208 50.3712 224.588 50.7602C224.015 51.1491 223.037 51.3436 221.653 51.3436Z" fill="#2F4858"/>
<path d="M259.342 35.3717C259.962 35.712 260.94 35.8822 262.276 35.8822C263.612 35.8822 264.566 35.712 265.139 35.3717C265.759 34.9827 266.141 34.4965 266.284 33.913C266.475 33.281 266.571 32.576 266.571 31.798V4.37588C266.571 3.64656 266.475 2.96587 266.284 2.3338C266.141 1.70173 265.759 1.21552 265.139 0.875177C264.566 0.486209 263.612 0.291726 262.276 0.291726C260.94 0.291726 259.962 0.486209 259.342 0.875177C258.721 1.21552 258.34 1.70173 258.196 2.3338C258.053 2.96587 257.982 3.64656 257.982 4.37588V31.871C257.982 32.6003 258.053 33.281 258.196 33.913C258.34 34.4965 258.721 34.9827 259.342 35.3717Z" fill="#2F4858"/>
<path d="M258.411 50.3226C259.079 51.0519 260.367 51.4166 262.276 51.4166C263.755 51.4166 264.829 51.1978 265.497 50.7602C266.165 50.3226 266.571 49.7391 266.714 49.0098C266.905 48.2319 267 47.4053 267 46.5302C267 44.7312 266.69 43.467 266.07 42.7377C265.449 42.0084 264.185 41.6438 262.276 41.6438C260.797 41.6438 259.723 41.8626 259.055 42.3001C258.387 42.7377 257.958 43.3455 257.767 44.1234C257.576 44.8527 257.481 45.655 257.481 46.5302C257.481 48.3291 257.791 49.5933 258.411 50.3226Z" fill="#2F4858"/>
</svg>
