<svg width="24" height="24" viewBox="0 0 24 24" fill="none" xmlns="http://www.w3.org/2000/svg">
<g clip-path="url(#clip0_1388_47658)">
<path d="M12 0C9.62663 0 7.30655 0.703788 5.33316 2.02236C3.35977 3.34094 1.8217 5.21508 0.913451 7.4078C0.00519941 9.60051 -0.232441 12.0133 0.230582 14.3411C0.693605 16.6689 1.83649 18.807 3.51472 20.4853C5.19295 22.1635 7.33115 23.3064 9.65892 23.7694C11.9867 24.2324 14.3995 23.9948 16.5922 23.0865C18.7849 22.1783 20.6591 20.6402 21.9776 18.6668C23.2962 16.6934 24 14.3734 24 12C24 10.4241 23.6896 8.8637 23.0866 7.4078C22.4835 5.95189 21.5996 4.62902 20.4853 3.51472C19.371 2.40041 18.0481 1.5165 16.5922 0.913445C15.1363 0.310389 13.5759 0 12 0ZM12 21.6C9.45393 21.6 7.01213 20.5886 5.21178 18.7882C3.41143 16.9879 2.40001 14.5461 2.40001 12C2.39735 9.86801 3.11162 7.79705 4.428 6.12L17.88 19.572C16.2029 20.8884 14.132 21.6026 12 21.6ZM19.572 17.88L6.12 4.428C7.79706 3.11162 9.86802 2.39735 12 2.4C14.5461 2.4 16.9879 3.41142 18.7882 5.21177C20.5886 7.01212 21.6 9.45392 21.6 12C21.6027 14.132 20.8884 16.2029 19.572 17.88Z" />
</g>
<defs>
<clipPath id="clip0_1388_47658">
<rect width="24" height="24" fill="white"/>
</clipPath>
</defs>
</svg>
