<svg width="24" height="24" viewBox="0 0 24 24" fill="none" xmlns="http://www.w3.org/2000/svg">
<path d="M20.4275 14.3892C21.641 12.3946 21.9909 9.95744 21.3875 7.70219C20.3837 3.95069 16.9708 1.33057 13.0873 1.33057H12.5338C7.8733 1.33057 4.08167 5.12219 4.08167 9.78269V10.9039L2.51005 13.3193C2.32667 13.6009 2.27455 13.9482 2.36717 14.2714C2.4598 14.5947 2.6878 14.8613 2.99267 15.0031L4.12142 15.5277L4.56842 18.0732C4.79567 19.3666 5.91392 20.3056 7.22755 20.3056H9.29642C9.56755 20.3056 9.80417 20.4983 9.8593 20.7634L10.1934 22.3707C10.2294 22.5447 10.3828 22.6692 10.5605 22.6692H18.5293C18.6422 22.6692 18.749 22.6182 18.8203 22.5308C18.8915 22.4434 18.9197 22.3283 18.8964 22.2181L18.3864 19.7633C18.1847 18.7921 18.3575 17.7908 18.8732 16.9437L20.4275 14.3892ZM8.47667 11.3041C8.1193 11.5823 7.65805 11.7353 7.17767 11.7353C6.69692 11.7353 6.23567 11.5819 5.8783 11.3041C5.7148 11.1769 5.68555 10.9411 5.81267 10.7779C5.94055 10.6141 6.17604 10.5856 6.3388 10.7123C6.79142 11.0644 7.56317 11.0644 8.01579 10.7123C8.17892 10.5852 8.41442 10.6141 8.54192 10.7779C8.66942 10.9411 8.64017 11.1769 8.47667 11.3041ZM17.0458 7.40519C17.0458 7.65044 16.847 7.84919 16.6018 7.84919H16.0213V8.25382C16.0213 8.50319 15.8192 8.70569 15.5694 8.70569H9.9733C9.72392 8.70569 9.52142 8.50357 9.52142 8.25382V5.16757C9.52142 4.91819 9.72355 4.71569 9.9733 4.71569H15.5698C15.8192 4.71569 16.0217 4.91782 16.0217 5.16757V5.57219H16.6022C16.8474 5.57219 17.0462 5.77094 17.0462 6.01619V7.40519H17.0458ZM10.7372 7.86419C10.5302 7.86419 10.3622 7.69619 10.3622 7.48919V5.93219C10.3622 5.72519 10.5302 5.55719 10.7372 5.55719C10.9442 5.55719 11.1122 5.72519 11.1122 5.93219V7.48919C11.1122 7.69619 10.9442 7.86419 10.7372 7.86419Z" />
</svg>
