<svg width="24" height="24" viewBox="0 0 24 24" fill="none" xmlns="http://www.w3.org/2000/svg">
<path d="M21.1568 19.5795L20.1285 18.7313L17.8399 13.0313C19.0418 12.8772 20.019 11.9299 20.1311 10.7487C20.2013 10.0193 19.9695 9.32067 19.4798 8.7818C18.9968 8.25042 18.3075 7.94555 17.5894 7.94555H16.3455C16.6624 7.17417 16.7599 6.33792 16.6275 5.49342C16.3133 3.49505 14.6254 1.8878 12.6139 1.67142C11.2928 1.52742 10.0294 1.93542 9.05064 2.81517C8.08464 3.68217 7.53077 4.92417 7.53077 6.2213C7.53077 7.00055 7.72652 7.75617 8.10114 8.43192C7.35489 8.77242 6.69639 9.27942 6.17739 9.91542L3.23514 13.524C1.40402 15.7699 1.57502 19.02 3.62402 20.9235C4.62639 21.8547 5.90139 22.356 7.24877 22.356C7.37439 22.356 7.50039 22.3515 7.62677 22.3429C9.09189 22.2417 10.4644 21.531 11.3925 20.3933L13.4318 17.8924L14.58 20.7522C14.9708 21.7264 15.9019 22.3557 16.9515 22.3557H20.1589C20.8283 22.3557 21.4073 21.9484 21.6341 21.3184C21.8603 20.6888 21.6731 20.0063 21.1568 19.5795ZM11.5444 7.94555H14.7503C14.9576 7.94555 15.1253 8.11317 15.1253 8.32055C15.1253 8.52792 14.9576 8.69555 14.7503 8.69555H11.5444C11.337 8.69555 11.1694 8.52792 11.1694 8.32055C11.1694 8.11317 11.337 7.94555 11.5444 7.94555ZM16.3163 13.0534H13.6875C13.128 13.0534 12.6053 13.3032 12.2543 13.7385L10.1111 16.3962C10.0373 16.488 9.92852 16.5357 9.81902 16.5357C9.73652 16.5357 9.65364 16.5087 9.58389 16.4524C9.42264 16.3223 9.39752 16.086 9.52764 15.9252L11.6708 13.2675C12.165 12.6548 12.9004 12.3034 13.6879 12.3034H16.3166C16.524 12.3034 16.6916 12.471 16.6916 12.6784C16.6916 12.8858 16.5233 13.0534 16.3163 13.0534ZM1.97852 8.46155C1.77114 8.46155 1.60352 8.29392 1.60352 8.08655V2.34267C1.60352 2.1353 1.77114 1.96767 1.97852 1.96767C2.18589 1.96767 2.35352 2.1353 2.35352 2.34267V8.08655C2.35352 8.29392 2.18589 8.46155 1.97852 8.46155ZM3.90414 6.7838C3.69677 6.7838 3.52914 6.61617 3.52914 6.4088V2.34267C3.52914 2.1353 3.69677 1.96767 3.90414 1.96767C4.11152 1.96767 4.27914 2.1353 4.27914 2.34267V6.4088C4.27914 6.61617 4.11152 6.7838 3.90414 6.7838ZM5.83014 5.10567C5.62277 5.10567 5.45514 4.93805 5.45514 4.73067V2.34267C5.45514 2.1353 5.62277 1.96767 5.83014 1.96767C6.03752 1.96767 6.20514 2.1353 6.20514 2.34267V4.73067C6.20514 4.93805 6.03752 5.10567 5.83014 5.10567ZM22.02 8.46155C21.8126 8.46155 21.645 8.29392 21.645 8.08655V2.34267C21.645 2.1353 21.8126 1.96767 22.02 1.96767C22.2274 1.96767 22.395 2.1353 22.395 2.34267V8.08655C22.395 8.29392 22.227 8.46155 22.02 8.46155ZM20.0944 6.7838C19.887 6.7838 19.7194 6.61617 19.7194 6.4088V2.34267C19.7194 2.1353 19.887 1.96767 20.0944 1.96767C20.3018 1.96767 20.4694 2.1353 20.4694 2.34267V6.4088C20.4694 6.61617 20.3018 6.7838 20.0944 6.7838ZM18.1684 5.10567C17.961 5.10567 17.7934 4.93805 17.7934 4.73067V2.34267C17.7934 2.1353 17.961 1.96767 18.1684 1.96767C18.3758 1.96767 18.5434 2.1353 18.5434 2.34267V4.73067C18.5434 4.93805 18.3758 5.10567 18.1684 5.10567Z" />
</svg>
