<svg width="24" height="24" viewBox="0 0 24 24" fill="none" xmlns="http://www.w3.org/2000/svg">
<path d="M11.8982 13.2523L5.56072 19.8861C5.37322 20.0811 5.12197 20.1936 4.84822 20.1973H4.83697C4.56697 20.1973 4.31572 20.0923 4.12447 19.9011C3.92947 19.7098 3.82447 19.4511 3.82822 19.1811C3.83197 18.9073 3.94072 18.6523 4.13947 18.4611L10.7957 12.1011L11.8982 13.2523Z" />
<path d="M20.2003 19.1475C20.2041 19.4213 20.0991 19.6763 19.9078 19.8713C19.7128 20.0625 19.4466 20.1675 19.1841 20.1638C18.9103 20.1638 18.6553 20.0513 18.4678 19.8525L12.1603 13.2525L12.0291 13.1175L10.9341 11.97L10.9041 11.94C10.8703 11.9025 10.8328 11.8688 10.7991 11.8388C10.2103 11.2613 9.45656 10.8938 8.66156 10.7925C7.62281 10.6575 6.41527 9.99754 5.43656 9.01504L2.32031 5.90254L2.71781 5.50504L6.43031 9.21754L7.09406 8.55379L3.38156 4.84129L3.77906 4.44379L7.49156 8.15629L8.15531 7.49254L4.44281 3.78004L4.84031 3.38254L8.55281 7.09504L9.21656 6.43129L5.50406 2.71879L5.90156 2.32129L9.01406 5.43754C10.0003 6.42004 10.6453 7.58254 10.7878 8.63254C10.8966 9.43504 11.2903 10.1963 11.8978 10.7888C11.9053 10.8 11.9166 10.8113 11.9278 10.8225L12.0291 10.92L13.1278 11.97L13.2628 12.0975L19.8891 18.4313C20.0878 18.6188 20.1966 18.8738 20.2003 19.1475Z" />
<path d="M20.2452 6.26629C19.9977 7.20008 19.4014 8.17879 18.5614 9.01504C18.0702 9.51004 17.5339 9.91504 16.9864 10.2188C16.4427 10.5225 15.8877 10.7175 15.3627 10.7888C14.5864 10.8938 13.8439 11.265 13.2627 11.8388L12.1602 10.785C12.7377 10.1963 13.1052 9.45004 13.2064 8.65879C13.3452 7.60504 13.9902 6.42754 14.9839 5.43754C16.1389 4.28254 17.5114 3.63379 18.5877 3.63379C19.1089 3.63379 19.5627 3.78754 19.8889 4.11004C20.3577 4.58254 20.4852 5.34754 20.2452 6.26629Z" />
</svg>
