<svg width="24" height="24" viewBox="0 0 24 24" fill="none" xmlns="http://www.w3.org/2000/svg">
<g clip-path="url(#clip0_480_11308)">
<path d="M12.7407 8.27618C12.501 8.22858 12.2534 8.20312 12 8.20312C9.90637 8.20312 8.20312 9.90637 8.20312 12C8.20312 14.0936 9.90637 15.7969 12 15.7969C14.0936 15.7969 15.7969 14.0936 15.7969 12C15.7969 11.7466 15.7714 11.499 15.7238 11.2593L13.4916 13.4916C13.0931 13.89 12.5634 14.1094 12 14.1094C11.4366 14.1094 10.9069 13.89 10.5084 13.4916C10.11 13.0931 9.89062 12.5634 9.89062 12C9.89062 11.4366 10.11 10.9069 10.5084 10.5084L12.7407 8.27618Z" />
<path d="M22.9261 7.04004L21.4133 8.55286C21.2618 8.70428 21.0912 8.8299 20.907 8.92731C21.2402 9.89099 21.4219 10.9246 21.4219 12C21.4219 17.1953 17.1953 21.4219 12 21.4219C6.80475 21.4219 2.57812 17.1953 2.57812 12C2.57812 6.80475 6.80475 2.57812 12 2.57812C13.0757 2.57812 14.1099 2.75995 15.0738 3.09338C15.1714 2.909 15.2961 2.73761 15.4473 2.58655L16.96 1.07391C15.4473 0.384521 13.7679 0 12 0C5.38312 0 0 5.38312 0 12C0 18.6169 5.38312 24 12 24C18.6169 24 24 18.6169 24 12C24 10.2321 23.6155 8.55267 22.9261 7.04004Z" />
<path d="M14.9865 6.0304L14.8583 4.51135C13.97 4.17096 13.0065 3.98438 12 3.98438C7.5802 3.98438 3.98438 7.5802 3.98438 12C3.98438 16.4198 7.5802 20.0156 12 20.0156C16.4198 20.0156 20.0156 16.4198 20.0156 12C20.0156 10.9935 19.829 10.03 19.4886 9.14172L17.9696 9.01355L16.8547 10.1283C17.0795 10.7095 17.2031 11.3405 17.2031 12C17.2031 14.8691 14.8691 17.2031 12 17.2031C9.13092 17.2031 6.79688 14.8691 6.79688 12C6.79688 9.13092 9.13092 6.79688 12 6.79688C12.6595 6.79688 13.2905 6.92047 13.8717 7.14532L14.9865 6.0304Z" />
<path d="M16.238 4.13749L16.4427 6.56327L11.5029 11.5031C11.2282 11.7776 11.2282 12.2229 11.5029 12.4974C11.64 12.6347 11.82 12.7034 12 12.7034C12.18 12.7034 12.36 12.6347 12.4971 12.4974L17.437 7.55754L19.8627 7.76207C19.8825 7.76371 19.9021 7.76463 19.9219 7.76463C20.1075 7.76463 20.2866 7.69102 20.419 7.55864L23.402 4.57548C23.5955 4.38212 23.6592 4.09391 23.5653 3.83683C23.4712 3.57975 23.2366 3.40068 22.964 3.37779L20.8044 3.1956L20.6224 1.03624C20.5994 0.763409 20.4203 0.528851 20.1634 0.434918C19.9063 0.340802 19.6181 0.404706 19.4246 0.598065L16.4416 3.58122C16.2951 3.7277 16.2206 3.93113 16.238 4.13749Z" />
</g>
<defs>
<clipPath id="clip0_480_11308">
<rect width="24" height="24" fill="white"/>
</clipPath>
</defs>
</svg>
