<svg width="24" height="24" viewBox="0 0 24 24" fill="none" xmlns="http://www.w3.org/2000/svg">
<g clip-path="url(#clip0_758_21171)">
<path d="M9.08547 2.17272C9.19348 1.08723 8.40106 0.119704 7.31557 0.0117003C6.23007 -0.0963038 5.26255 0.69611 5.15454 1.78161C5.04654 2.8671 5.83895 3.83462 6.92445 3.94263C8.00994 4.05063 8.97747 3.25822 9.08547 2.17272Z" />
<path d="M16.2697 5.23159C17.275 5.06862 17.9578 4.12158 17.7949 3.1163C17.6319 2.11103 16.6849 1.4282 15.6796 1.59116C14.6743 1.75412 13.9915 2.70117 14.1544 3.70644C14.3174 4.71172 15.2645 5.39455 16.2697 5.23159Z" />
<path d="M21.6826 13.5278C21.6681 13.4879 20.2151 9.5127 19.5753 7.65089C19.1625 6.44955 18.4703 5.84044 17.5179 5.84044C16.8445 5.84044 15.1097 5.84044 14.4348 5.84044C13.4824 5.84044 12.7902 6.44955 12.3774 7.65089C12.2621 7.98627 12.1205 8.3904 11.9656 8.82761V6.8291C11.9656 6.8275 11.9656 6.8259 11.9656 6.82431C11.9594 5.58687 10.9318 4.58008 9.67487 4.58008C8.59641 4.58008 5.65971 4.58008 4.55804 4.58008C3.29913 4.58008 2.26987 5.58683 2.26367 6.82431V6.8291V13.8313C2.26367 14.3577 2.6904 14.7844 3.21676 14.7844C3.74311 14.7844 4.16984 14.3577 4.16984 13.8313V6.83258C4.17167 6.65119 4.3563 6.48634 4.55804 6.48634H4.58116V13.7141H4.58205V22.8561C4.58205 23.4877 5.09412 23.9998 5.72578 23.9998C6.35744 23.9998 6.86951 23.4877 6.86951 22.8561V13.7141H7.3633V22.8561C7.3633 23.4877 7.87537 23.9998 8.50703 23.9998C9.13869 23.9998 9.65076 23.4877 9.65076 22.8561V13.7141C9.65076 13.7067 9.65034 13.6995 9.6502 13.6922L9.64136 6.48634H9.67477C9.87449 6.48634 10.0573 6.651 10.0593 6.83225V13.8313C10.0593 14.3577 10.486 14.7844 11.0123 14.7844C11.4379 14.7844 11.8154 14.4833 11.9413 14.1389C11.9517 14.1104 12.6901 12.0902 13.3485 10.2487L12.4321 15.9124C12.3797 16.2152 12.6141 16.4917 12.9192 16.4917H13.6101V22.9027C13.6101 23.4924 14.0882 23.9705 14.6779 23.9705C15.2676 23.9705 15.7456 23.4924 15.7456 22.9027V16.4917H16.2067V22.9027C16.2067 23.4924 16.6848 23.9705 17.2745 23.9705C17.8641 23.9705 18.3422 23.4924 18.3422 22.9027V16.4917H19.0331C19.3392 16.4917 19.5727 16.2156 19.5202 15.9124L18.506 9.97467C19.1868 11.8838 20.0002 14.109 20.0111 14.1389C20.1804 14.602 20.6924 14.8374 21.1523 14.6691C21.614 14.5003 21.8514 13.9893 21.6826 13.5278Z" />
</g>
<defs>
<clipPath id="clip0_758_21171">
<rect width="24" height="24" fill="white"/>
</clipPath>
</defs>
</svg>
